<svg xmlns="http://www.w3.org/2000/svg" xmlns:xlink="http://www.w3.org/1999/xlink" width="2083" zoomAndPan="magnify" viewBox="0 0 1562.25 524.249967" height="699" preserveAspectRatio="xMidYMid meet" version="1.0"><defs><g/><clipPath id="47c518a34d"><path d="M 0.742188 0 L 1560.757812 0 L 1560.757812 523.5 L 0.742188 523.5 Z M 0.742188 0 " clip-rule="nonzero"/></clipPath><clipPath id="a70d40dcc8"><path d="M 1146.523438 460.058594 L 1193.703125 460.058594 L 1193.703125 507.988281 L 1146.523438 507.988281 Z M 1146.523438 460.058594 " clip-rule="nonzero"/></clipPath><clipPath id="c9f07b1710"><path d="M 733.390625 459.769531 L 782 459.769531 L 782 508.449219 L 733.390625 508.449219 Z M 733.390625 459.769531 " clip-rule="nonzero"/></clipPath><clipPath id="871b5c6c97"><path d="M 682.699219 459.769531 L 731.378906 459.769531 L 731.378906 508.449219 L 682.699219 508.449219 Z M 682.699219 459.769531 " clip-rule="nonzero"/></clipPath><clipPath id="746aa8c824"><path d="M 632.042969 459.769531 L 679.972656 459.769531 L 679.972656 507.703125 L 632.042969 507.703125 Z M 632.042969 459.769531 " clip-rule="nonzero"/></clipPath><clipPath id="2414832ad8"><path d="M 646.753906 465.238281 L 665.476562 465.238281 L 665.476562 502.683594 L 646.753906 502.683594 Z M 646.753906 465.238281 " clip-rule="nonzero"/></clipPath><clipPath id="cdefde5298"><path d="M 658.667969 502.59375 L 651.308594 502.59375 L 651.308594 483.667969 L 646.757812 483.667969 L 646.757812 477.425781 L 651.308594 477.425781 L 651.308594 475.417969 C 651.308594 472.066406 652.078125 469.53125 653.621094 467.816406 C 655.179688 466.097656 657.679688 465.238281 661.128906 465.238281 C 661.757812 465.238281 662.519531 465.28125 663.414062 465.363281 C 664.324219 465.429688 665.0625 465.503906 665.628906 465.585938 L 665.628906 471.753906 C 665.363281 471.71875 664.964844 471.6875 664.433594 471.65625 C 663.921875 471.605469 663.523438 471.582031 663.242188 471.582031 C 661.617188 471.582031 660.449219 471.910156 659.734375 472.570312 C 659.023438 473.230469 658.667969 474.371094 658.667969 475.988281 L 658.667969 477.425781 L 665.476562 477.425781 L 664.65625 483.667969 L 658.667969 483.667969 Z M 658.667969 502.59375 " clip-rule="nonzero"/></clipPath></defs><g clip-path="url(#47c518a34d)"><path fill="#ffffff" d="M 0.742188 0 L 1560.757812 0 L 1560.757812 523.5 L 0.742188 523.5 Z M 0.742188 0 " fill-opacity="1" fill-rule="nonzero"/></g><g clip-path="url(#a70d40dcc8)"><path fill="#225db4" d="M 1193.609375 483.601562 C 1193.609375 496.605469 1183.070312 507.144531 1170.070312 507.144531 C 1166.207031 507.148438 1162.5625 506.253906 1159.140625 504.457031 C 1159.132812 504.460938 1159.125 504.464844 1159.113281 504.46875 L 1152.019531 507.417969 C 1149.796875 508.34375 1147.558594 506.144531 1148.4375 503.90625 L 1150.996094 497.402344 C 1149.542969 495.398438 1148.433594 493.214844 1147.667969 490.859375 C 1146.90625 488.5 1146.527344 486.082031 1146.53125 483.601562 C 1146.53125 470.601562 1157.070312 460.0625 1170.070312 460.0625 C 1183.070312 460.0625 1193.609375 470.601562 1193.609375 483.601562 Z M 1193.609375 483.601562 " fill-opacity="1" fill-rule="nonzero"/></g><path fill="#ffffff" d="M 1190.554688 483.601562 C 1190.554688 484.273438 1190.523438 484.945312 1190.457031 485.613281 C 1190.390625 486.277344 1190.292969 486.941406 1190.160156 487.601562 C 1190.03125 488.257812 1189.867188 488.90625 1189.671875 489.550781 C 1189.476562 490.191406 1189.253906 490.824219 1188.996094 491.441406 C 1188.738281 492.0625 1188.453125 492.667969 1188.136719 493.261719 C 1187.820312 493.851562 1187.476562 494.425781 1187.101562 494.984375 C 1186.730469 495.542969 1186.332031 496.082031 1185.90625 496.597656 C 1185.480469 497.117188 1185.027344 497.613281 1184.554688 498.089844 C 1184.082031 498.5625 1183.582031 499.011719 1183.066406 499.4375 C 1182.546875 499.863281 1182.007812 500.265625 1181.449219 500.636719 C 1180.890625 501.007812 1180.316406 501.355469 1179.726562 501.671875 C 1179.132812 501.988281 1178.527344 502.273438 1177.910156 502.53125 C 1177.289062 502.785156 1176.65625 503.011719 1176.015625 503.207031 C 1175.375 503.402344 1174.722656 503.566406 1174.066406 503.695312 C 1173.40625 503.828125 1172.746094 503.925781 1172.078125 503.992188 C 1171.410156 504.054688 1170.738281 504.089844 1170.070312 504.089844 C 1169.398438 504.089844 1168.730469 504.054688 1168.0625 503.992188 C 1167.394531 503.925781 1166.730469 503.828125 1166.074219 503.695312 C 1165.414062 503.566406 1164.765625 503.402344 1164.121094 503.207031 C 1163.480469 503.011719 1162.847656 502.785156 1162.230469 502.53125 C 1161.609375 502.273438 1161.003906 501.988281 1160.414062 501.671875 C 1159.820312 501.355469 1159.246094 501.007812 1158.6875 500.636719 C 1158.128906 500.265625 1157.59375 499.863281 1157.074219 499.4375 C 1156.554688 499.011719 1156.058594 498.5625 1155.582031 498.089844 C 1155.109375 497.613281 1154.660156 497.117188 1154.234375 496.597656 C 1153.808594 496.082031 1153.410156 495.542969 1153.035156 494.984375 C 1152.664062 494.425781 1152.320312 493.851562 1152.003906 493.261719 C 1151.6875 492.667969 1151.398438 492.0625 1151.144531 491.441406 C 1150.886719 490.824219 1150.660156 490.191406 1150.464844 489.550781 C 1150.269531 488.90625 1150.109375 488.257812 1149.976562 487.601562 C 1149.847656 486.941406 1149.75 486.277344 1149.683594 485.613281 C 1149.617188 484.945312 1149.582031 484.273438 1149.582031 483.601562 C 1149.582031 482.933594 1149.617188 482.261719 1149.683594 481.59375 C 1149.75 480.929688 1149.847656 480.265625 1149.976562 479.605469 C 1150.109375 478.949219 1150.269531 478.300781 1150.464844 477.65625 C 1150.660156 477.015625 1150.886719 476.382812 1151.144531 475.765625 C 1151.398438 475.144531 1151.6875 474.539062 1152.003906 473.945312 C 1152.320312 473.355469 1152.664062 472.78125 1153.035156 472.222656 C 1153.410156 471.664062 1153.808594 471.125 1154.234375 470.609375 C 1154.660156 470.089844 1155.109375 469.59375 1155.582031 469.117188 C 1156.058594 468.644531 1156.554688 468.195312 1157.074219 467.769531 C 1157.59375 467.34375 1158.128906 466.941406 1158.6875 466.570312 C 1159.246094 466.199219 1159.820312 465.851562 1160.414062 465.535156 C 1161.003906 465.21875 1161.609375 464.933594 1162.230469 464.675781 C 1162.847656 464.421875 1163.480469 464.195312 1164.121094 464 C 1164.765625 463.804688 1165.414062 463.640625 1166.074219 463.511719 C 1166.730469 463.378906 1167.394531 463.28125 1168.0625 463.214844 C 1168.730469 463.152344 1169.398438 463.117188 1170.070312 463.117188 C 1170.738281 463.117188 1171.410156 463.152344 1172.078125 463.214844 C 1172.746094 463.28125 1173.40625 463.378906 1174.066406 463.511719 C 1174.722656 463.640625 1175.375 463.804688 1176.015625 464 C 1176.65625 464.195312 1177.289062 464.421875 1177.910156 464.675781 C 1178.527344 464.933594 1179.132812 465.21875 1179.726562 465.535156 C 1180.316406 465.851562 1180.890625 466.199219 1181.449219 466.570312 C 1182.007812 466.941406 1182.546875 467.34375 1183.066406 467.769531 C 1183.582031 468.195312 1184.082031 468.644531 1184.554688 469.117188 C 1185.027344 469.59375 1185.480469 470.089844 1185.90625 470.609375 C 1186.332031 471.125 1186.730469 471.664062 1187.101562 472.222656 C 1187.476562 472.78125 1187.820312 473.355469 1188.136719 473.945312 C 1188.453125 474.539062 1188.738281 475.144531 1188.996094 475.765625 C 1189.253906 476.382812 1189.476562 477.015625 1189.671875 477.65625 C 1189.867188 478.300781 1190.03125 478.949219 1190.160156 479.605469 C 1190.292969 480.265625 1190.390625 480.929688 1190.457031 481.59375 C 1190.523438 482.261719 1190.554688 482.933594 1190.554688 483.601562 Z M 1190.554688 483.601562 " fill-opacity="1" fill-rule="nonzero"/><path fill="#225db4" d="M 1187.683594 483.601562 C 1187.683594 484.179688 1187.65625 484.757812 1187.601562 485.332031 C 1187.542969 485.90625 1187.460938 486.472656 1187.347656 487.039062 C 1187.234375 487.605469 1187.09375 488.164062 1186.925781 488.71875 C 1186.757812 489.269531 1186.566406 489.8125 1186.34375 490.34375 C 1186.125 490.878906 1185.878906 491.398438 1185.605469 491.90625 C 1185.332031 492.417969 1185.039062 492.910156 1184.714844 493.390625 C 1184.394531 493.871094 1184.054688 494.332031 1183.6875 494.777344 C 1183.320312 495.226562 1182.933594 495.652344 1182.527344 496.058594 C 1182.117188 496.46875 1181.691406 496.855469 1181.246094 497.222656 C 1180.800781 497.585938 1180.335938 497.929688 1179.855469 498.25 C 1179.375 498.570312 1178.882812 498.867188 1178.375 499.140625 C 1177.863281 499.410156 1177.34375 499.65625 1176.8125 499.878906 C 1176.277344 500.101562 1175.734375 500.292969 1175.183594 500.460938 C 1174.628906 500.628906 1174.070312 500.769531 1173.507812 500.882812 C 1172.941406 500.992188 1172.371094 501.078125 1171.796875 501.136719 C 1171.222656 501.191406 1170.644531 501.21875 1170.070312 501.21875 C 1169.492188 501.21875 1168.917969 501.191406 1168.34375 501.136719 C 1167.769531 501.078125 1167.199219 500.992188 1166.632812 500.882812 C 1166.066406 500.769531 1165.507812 500.628906 1164.957031 500.460938 C 1164.402344 500.292969 1163.859375 500.101562 1163.328125 499.878906 C 1162.792969 499.65625 1162.273438 499.410156 1161.765625 499.140625 C 1161.257812 498.867188 1160.761719 498.570312 1160.28125 498.25 C 1159.800781 497.929688 1159.339844 497.585938 1158.894531 497.222656 C 1158.449219 496.855469 1158.019531 496.46875 1157.613281 496.058594 C 1157.203125 495.652344 1156.816406 495.226562 1156.453125 494.777344 C 1156.085938 494.332031 1155.742188 493.871094 1155.421875 493.390625 C 1155.101562 492.910156 1154.804688 492.417969 1154.53125 491.90625 C 1154.261719 491.398438 1154.015625 490.878906 1153.792969 490.34375 C 1153.574219 489.8125 1153.378906 489.269531 1153.210938 488.71875 C 1153.042969 488.164062 1152.902344 487.605469 1152.792969 487.039062 C 1152.679688 486.472656 1152.59375 485.90625 1152.539062 485.332031 C 1152.480469 484.757812 1152.453125 484.179688 1152.453125 483.601562 C 1152.453125 483.027344 1152.480469 482.449219 1152.539062 481.875 C 1152.59375 481.300781 1152.679688 480.734375 1152.792969 480.167969 C 1152.902344 479.601562 1153.042969 479.042969 1153.210938 478.488281 C 1153.378906 477.9375 1153.574219 477.394531 1153.792969 476.863281 C 1154.015625 476.328125 1154.261719 475.808594 1154.53125 475.300781 C 1154.804688 474.789062 1155.101562 474.296875 1155.421875 473.816406 C 1155.742188 473.335938 1156.085938 472.875 1156.453125 472.429688 C 1156.816406 471.980469 1157.203125 471.554688 1157.613281 471.148438 C 1158.019531 470.738281 1158.449219 470.351562 1158.894531 469.984375 C 1159.339844 469.621094 1159.800781 469.277344 1160.28125 468.957031 C 1160.761719 468.636719 1161.257812 468.339844 1161.765625 468.066406 C 1162.273438 467.796875 1162.792969 467.550781 1163.328125 467.328125 C 1163.859375 467.105469 1164.402344 466.914062 1164.957031 466.746094 C 1165.507812 466.578125 1166.066406 466.4375 1166.632812 466.324219 C 1167.199219 466.214844 1167.769531 466.128906 1168.34375 466.070312 C 1168.917969 466.015625 1169.492188 465.988281 1170.070312 465.988281 C 1170.644531 465.988281 1171.222656 466.015625 1171.796875 466.070312 C 1172.371094 466.128906 1172.941406 466.214844 1173.507812 466.324219 C 1174.070312 466.4375 1174.628906 466.578125 1175.183594 466.746094 C 1175.734375 466.914062 1176.277344 467.105469 1176.8125 467.328125 C 1177.34375 467.550781 1177.863281 467.796875 1178.375 468.066406 C 1178.882812 468.339844 1179.375 468.636719 1179.855469 468.957031 C 1180.335938 469.277344 1180.800781 469.621094 1181.246094 469.984375 C 1181.691406 470.351562 1182.117188 470.738281 1182.527344 471.148438 C 1182.933594 471.554688 1183.320312 471.980469 1183.6875 472.429688 C 1184.054688 472.875 1184.394531 473.335938 1184.714844 473.816406 C 1185.039062 474.296875 1185.332031 474.789062 1185.605469 475.300781 C 1185.878906 475.808594 1186.125 476.328125 1186.34375 476.863281 C 1186.566406 477.394531 1186.757812 477.9375 1186.925781 478.488281 C 1187.09375 479.042969 1187.234375 479.601562 1187.347656 480.167969 C 1187.460938 480.734375 1187.542969 481.300781 1187.601562 481.875 C 1187.65625 482.449219 1187.683594 483.027344 1187.683594 483.601562 Z M 1187.683594 483.601562 " fill-opacity="1" fill-rule="nonzero"/><path fill="#ffffff" d="M 1167.808594 477.847656 L 1167.121094 474.953125 C 1167.042969 474.621094 1166.898438 474.316406 1166.691406 474.042969 C 1166.480469 473.769531 1166.226562 473.554688 1165.921875 473.390625 C 1165.621094 473.226562 1165.296875 473.132812 1164.957031 473.105469 C 1164.613281 473.078125 1164.28125 473.125 1163.957031 473.242188 L 1162.375 473.808594 C 1162.117188 473.902344 1161.882812 474.035156 1161.671875 474.207031 C 1161.460938 474.382812 1161.28125 474.585938 1161.136719 474.816406 C 1160.996094 475.050781 1160.894531 475.300781 1160.835938 475.570312 C 1160.777344 475.835938 1160.765625 476.105469 1160.800781 476.378906 C 1161.351562 480.855469 1163.886719 491.683594 1175.550781 494.0625 C 1176.023438 494.160156 1176.484375 494.121094 1176.933594 493.9375 C 1177.382812 493.757812 1177.742188 493.472656 1178.019531 493.074219 L 1178.925781 491.761719 C 1179.109375 491.5 1179.230469 491.210938 1179.300781 490.898438 C 1179.367188 490.585938 1179.371094 490.273438 1179.316406 489.957031 C 1179.257812 489.644531 1179.144531 489.351562 1178.96875 489.082031 C 1178.796875 488.816406 1178.578125 488.589844 1178.316406 488.40625 L 1178.300781 488.394531 L 1176.304688 487.039062 C 1176.089844 486.890625 1175.855469 486.78125 1175.605469 486.710938 C 1175.351562 486.640625 1175.097656 486.609375 1174.835938 486.621094 C 1174.574219 486.636719 1174.324219 486.6875 1174.078125 486.78125 C 1173.835938 486.875 1173.613281 487.007812 1173.410156 487.171875 C 1173 487.511719 1172.53125 487.695312 1171.996094 487.722656 C 1171.464844 487.75 1170.976562 487.613281 1170.535156 487.316406 C 1169.320312 486.5 1167.679688 485.144531 1166.613281 483.265625 C 1166.367188 482.835938 1166.261719 482.371094 1166.300781 481.878906 C 1166.339844 481.382812 1166.515625 480.941406 1166.828125 480.554688 L 1167.339844 479.917969 C 1167.832031 479.304688 1167.988281 478.613281 1167.808594 477.847656 Z M 1167.808594 477.847656 " fill-opacity="1" fill-rule="nonzero"/><g fill="#223047" fill-opacity="1"><g transform="translate(1195.971798, 495.616872)"><g><path d="M 4.203125 0 L 13.5625 -10.90625 C 13.019531 -10.59375 12.257812 -10.4375 11.28125 -10.4375 C 10.15625 -10.4375 9.015625 -10.671875 7.859375 -11.140625 C 6.703125 -11.617188 5.613281 -12.300781 4.59375 -13.1875 C 3.582031 -14.070312 2.753906 -15.242188 2.109375 -16.703125 C 1.472656 -18.171875 1.15625 -19.789062 1.15625 -21.5625 C 1.15625 -23.363281 1.492188 -24.976562 2.171875 -26.40625 C 2.859375 -27.832031 3.769531 -28.960938 4.90625 -29.796875 C 6.050781 -30.628906 7.300781 -31.265625 8.65625 -31.703125 C 10.019531 -32.140625 11.445312 -32.359375 12.9375 -32.359375 C 16.507812 -32.359375 19.515625 -31.316406 21.953125 -29.234375 C 24.390625 -27.148438 25.609375 -24.59375 25.609375 -21.5625 C 25.609375 -19 25.25 -16.890625 24.53125 -15.234375 C 23.8125 -13.578125 22.503906 -11.460938 20.609375 -8.890625 L 13.140625 0 Z M 18.109375 -21.5625 C 18.109375 -22.957031 17.65625 -24.109375 16.75 -25.015625 C 15.851562 -25.929688 14.695312 -26.390625 13.28125 -26.390625 C 11.875 -26.390625 10.707031 -25.929688 9.78125 -25.015625 C 8.851562 -24.109375 8.390625 -22.957031 8.390625 -21.5625 C 8.390625 -20.15625 8.859375 -18.984375 9.796875 -18.046875 C 10.734375 -17.109375 11.894531 -16.640625 13.28125 -16.640625 C 14.625 -16.640625 15.765625 -17.109375 16.703125 -18.046875 C 17.640625 -18.984375 18.109375 -20.15625 18.109375 -21.5625 Z M 18.109375 -21.5625 "/></g></g></g><g fill="#223047" fill-opacity="1"><g transform="translate(1222.512085, 495.616872)"><g><path d="M 22.34375 -31.78125 L 12.984375 -20.875 C 13.515625 -21.1875 14.269531 -21.34375 15.25 -21.34375 C 16.382812 -21.34375 17.523438 -21.101562 18.671875 -20.625 C 19.828125 -20.144531 20.910156 -19.460938 21.921875 -18.578125 C 22.941406 -17.691406 23.769531 -16.515625 24.40625 -15.046875 C 25.050781 -13.585938 25.375 -11.972656 25.375 -10.203125 C 25.375 -8.410156 25.035156 -6.800781 24.359375 -5.375 C 23.679688 -3.945312 22.769531 -2.816406 21.625 -1.984375 C 20.476562 -1.148438 19.222656 -0.515625 17.859375 -0.078125 C 16.503906 0.359375 15.082031 0.578125 13.59375 0.578125 C 10.03125 0.578125 7.023438 -0.457031 4.578125 -2.53125 C 2.140625 -4.613281 0.921875 -7.171875 0.921875 -10.203125 C 0.921875 -12.773438 1.28125 -14.890625 2 -16.546875 C 2.71875 -18.203125 4.03125 -20.3125 5.9375 -22.875 L 13.40625 -31.78125 Z M 8.4375 -10.203125 C 8.4375 -8.816406 8.882812 -7.664062 9.78125 -6.75 C 10.675781 -5.84375 11.832031 -5.390625 13.25 -5.390625 C 14.664062 -5.390625 15.832031 -5.84375 16.75 -6.75 C 17.675781 -7.664062 18.140625 -8.816406 18.140625 -10.203125 C 18.140625 -11.617188 17.671875 -12.796875 16.734375 -13.734375 C 15.796875 -14.671875 14.632812 -15.140625 13.25 -15.140625 C 11.914062 -15.140625 10.78125 -14.671875 9.84375 -13.734375 C 8.90625 -12.796875 8.4375 -11.617188 8.4375 -10.203125 Z M 8.4375 -10.203125 "/></g></g></g><g fill="#223047" fill-opacity="1"><g transform="translate(1249.052371, 495.616872)"><g/></g></g><g fill="#223047" fill-opacity="1"><g transform="translate(1259.568338, 495.616872)"><g><path d="M 21.453125 -13.0625 L 25.15625 -13.0625 L 25.15625 -6.703125 L 21.453125 -6.703125 L 21.453125 0 L 14.671875 0 L 14.671875 -6.703125 L -0.96875 -6.703125 L -0.96875 -8.859375 L 14.296875 -31.78125 L 21.453125 -31.78125 Z M 14.671875 -22.109375 L 14.59375 -22.109375 L 8.9375 -13.0625 L 14.671875 -13.0625 Z M 14.671875 -22.109375 "/></g></g></g><g fill="#223047" fill-opacity="1"><g transform="translate(1285.222663, 495.616872)"><g><path d="M 1.109375 -18.75 L 1.109375 -25.921875 L 10.171875 -31.78125 L 13.59375 -31.78125 L 13.59375 0 L 6.359375 0 L 6.359375 -22.140625 Z M 1.109375 -18.75 "/></g></g></g><g fill="#223047" fill-opacity="1"><g transform="translate(1301.131429, 495.616872)"><g><path d="M 21.453125 -13.0625 L 25.15625 -13.0625 L 25.15625 -6.703125 L 21.453125 -6.703125 L 21.453125 0 L 14.671875 0 L 14.671875 -6.703125 L -0.96875 -6.703125 L -0.96875 -8.859375 L 14.296875 -31.78125 L 21.453125 -31.78125 Z M 14.671875 -22.109375 L 14.59375 -22.109375 L 8.9375 -13.0625 L 14.671875 -13.0625 Z M 14.671875 -22.109375 "/></g></g></g><g fill="#223047" fill-opacity="1"><g transform="translate(1326.785754, 495.616872)"><g><path d="M 1.109375 -18.75 L 1.109375 -25.921875 L 10.171875 -31.78125 L 13.59375 -31.78125 L 13.59375 0 L 6.359375 0 L 6.359375 -22.140625 Z M 1.109375 -18.75 "/></g></g></g><g fill="#223047" fill-opacity="1"><g transform="translate(1342.69452, 495.616872)"><g><path d="M 2.3125 -14.09375 L 14.71875 -14.09375 L 14.71875 -8.203125 L 2.3125 -8.203125 Z M 2.3125 -14.09375 "/></g></g></g><g fill="#223047" fill-opacity="1"><g transform="translate(1359.720368, 495.616872)"><g><path d="M 0.6875 -6.3125 L 6.4375 -9.09375 C 7.15625 -6.675781 9.015625 -5.46875 12.015625 -5.46875 C 13.328125 -5.46875 14.410156 -5.90625 15.265625 -6.78125 C 16.128906 -7.65625 16.5625 -8.757812 16.5625 -10.09375 C 16.5625 -11.425781 16.144531 -12.519531 15.3125 -13.375 C 14.476562 -14.238281 13.472656 -14.835938 12.296875 -15.171875 C 11.128906 -15.503906 9.800781 -15.671875 8.3125 -15.671875 C 6.207031 -15.671875 4.398438 -15.335938 2.890625 -14.671875 L 5.546875 -31.78125 L 21.765625 -31.78125 L 21.765625 -25.421875 L 11.75 -25.421875 L 11.046875 -20.984375 C 11.128906 -20.984375 11.269531 -20.988281 11.46875 -21 C 11.675781 -21.019531 11.832031 -21.03125 11.9375 -21.03125 C 13.550781 -21.03125 15.019531 -20.847656 16.34375 -20.484375 C 17.664062 -20.128906 18.910156 -19.550781 20.078125 -18.75 C 21.253906 -17.957031 22.164062 -16.800781 22.8125 -15.28125 C 23.46875 -13.769531 23.796875 -11.960938 23.796875 -9.859375 C 23.796875 -6.828125 22.6875 -4.328125 20.46875 -2.359375 C 18.25 -0.398438 15.429688 0.578125 12.015625 0.578125 C 8.910156 0.578125 6.421875 -0.09375 4.546875 -1.4375 C 2.671875 -2.789062 1.382812 -4.414062 0.6875 -6.3125 Z M 0.6875 -6.3125 "/></g></g></g><g fill="#223047" fill-opacity="1"><g transform="translate(1384.411702, 495.616872)"><g><path d="M 0.6875 -6.3125 L 6.4375 -9.09375 C 7.15625 -6.675781 9.015625 -5.46875 12.015625 -5.46875 C 13.328125 -5.46875 14.410156 -5.90625 15.265625 -6.78125 C 16.128906 -7.65625 16.5625 -8.757812 16.5625 -10.09375 C 16.5625 -11.425781 16.144531 -12.519531 15.3125 -13.375 C 14.476562 -14.238281 13.472656 -14.835938 12.296875 -15.171875 C 11.128906 -15.503906 9.800781 -15.671875 8.3125 -15.671875 C 6.207031 -15.671875 4.398438 -15.335938 2.890625 -14.671875 L 5.546875 -31.78125 L 21.765625 -31.78125 L 21.765625 -25.421875 L 11.75 -25.421875 L 11.046875 -20.984375 C 11.128906 -20.984375 11.269531 -20.988281 11.46875 -21 C 11.675781 -21.019531 11.832031 -21.03125 11.9375 -21.03125 C 13.550781 -21.03125 15.019531 -20.847656 16.34375 -20.484375 C 17.664062 -20.128906 18.910156 -19.550781 20.078125 -18.75 C 21.253906 -17.957031 22.164062 -16.800781 22.8125 -15.28125 C 23.46875 -13.769531 23.796875 -11.960938 23.796875 -9.859375 C 23.796875 -6.828125 22.6875 -4.328125 20.46875 -2.359375 C 18.25 -0.398438 15.429688 0.578125 12.015625 0.578125 C 8.910156 0.578125 6.421875 -0.09375 4.546875 -1.4375 C 2.671875 -2.789062 1.382812 -4.414062 0.6875 -6.3125 Z M 0.6875 -6.3125 "/></g></g></g><g fill="#223047" fill-opacity="1"><g transform="translate(1409.103025, 495.616872)"><g><path d="M 0.6875 -6.3125 L 6.4375 -9.09375 C 7.15625 -6.675781 9.015625 -5.46875 12.015625 -5.46875 C 13.328125 -5.46875 14.410156 -5.90625 15.265625 -6.78125 C 16.128906 -7.65625 16.5625 -8.757812 16.5625 -10.09375 C 16.5625 -11.425781 16.144531 -12.519531 15.3125 -13.375 C 14.476562 -14.238281 13.472656 -14.835938 12.296875 -15.171875 C 11.128906 -15.503906 9.800781 -15.671875 8.3125 -15.671875 C 6.207031 -15.671875 4.398438 -15.335938 2.890625 -14.671875 L 5.546875 -31.78125 L 21.765625 -31.78125 L 21.765625 -25.421875 L 11.75 -25.421875 L 11.046875 -20.984375 C 11.128906 -20.984375 11.269531 -20.988281 11.46875 -21 C 11.675781 -21.019531 11.832031 -21.03125 11.9375 -21.03125 C 13.550781 -21.03125 15.019531 -20.847656 16.34375 -20.484375 C 17.664062 -20.128906 18.910156 -19.550781 20.078125 -18.75 C 21.253906 -17.957031 22.164062 -16.800781 22.8125 -15.28125 C 23.46875 -13.769531 23.796875 -11.960938 23.796875 -9.859375 C 23.796875 -6.828125 22.6875 -4.328125 20.46875 -2.359375 C 18.25 -0.398438 15.429688 0.578125 12.015625 0.578125 C 8.910156 0.578125 6.421875 -0.09375 4.546875 -1.4375 C 2.671875 -2.789062 1.382812 -4.414062 0.6875 -6.3125 Z M 0.6875 -6.3125 "/></g></g></g><g fill="#223047" fill-opacity="1"><g transform="translate(1433.794371, 495.616872)"><g><path d="M 1.078125 -15.875 C 1.078125 -21.101562 2.320312 -25.15625 4.8125 -28.03125 C 7.300781 -30.914062 10.367188 -32.359375 14.015625 -32.359375 C 17.660156 -32.359375 20.722656 -30.914062 23.203125 -28.03125 C 25.679688 -25.15625 26.921875 -21.101562 26.921875 -15.875 C 26.921875 -13.019531 26.570312 -10.515625 25.875 -8.359375 C 25.1875 -6.203125 24.234375 -4.488281 23.015625 -3.21875 C 21.796875 -1.945312 20.429688 -0.992188 18.921875 -0.359375 C 17.421875 0.265625 15.785156 0.578125 14.015625 0.578125 C 12.242188 0.578125 10.609375 0.265625 9.109375 -0.359375 C 7.609375 -0.992188 6.238281 -1.945312 5 -3.21875 C 3.769531 -4.488281 2.804688 -6.203125 2.109375 -8.359375 C 1.421875 -10.515625 1.078125 -13.019531 1.078125 -15.875 Z M 8.390625 -15.875 C 8.390625 -12.507812 8.878906 -9.984375 9.859375 -8.296875 C 10.835938 -6.617188 12.222656 -5.78125 14.015625 -5.78125 C 15.785156 -5.78125 17.160156 -6.617188 18.140625 -8.296875 C 19.117188 -9.984375 19.609375 -12.507812 19.609375 -15.875 C 19.609375 -19.082031 19.113281 -21.570312 18.125 -23.34375 C 17.132812 -25.113281 15.765625 -26 14.015625 -26 C 12.273438 -26 10.898438 -25.101562 9.890625 -23.3125 C 8.890625 -21.53125 8.390625 -19.050781 8.390625 -15.875 Z M 8.390625 -15.875 "/></g></g></g><g clip-path="url(#c9f07b1710)"><path fill="#225db4" d="M 733.390625 484.0625 C 733.390625 483.269531 733.429688 482.472656 733.507812 481.683594 C 733.585938 480.890625 733.703125 480.105469 733.859375 479.324219 C 734.011719 478.542969 734.207031 477.773438 734.4375 477.011719 C 734.667969 476.25 734.9375 475.5 735.242188 474.765625 C 735.542969 474.03125 735.882812 473.3125 736.257812 472.613281 C 736.632812 471.910156 737.042969 471.226562 737.484375 470.566406 C 737.925781 469.90625 738.402344 469.265625 738.90625 468.652344 C 739.410156 468.035156 739.945312 467.449219 740.507812 466.886719 C 741.070312 466.324219 741.65625 465.789062 742.273438 465.285156 C 742.886719 464.78125 743.527344 464.304688 744.1875 463.863281 C 744.847656 463.421875 745.53125 463.011719 746.234375 462.636719 C 746.933594 462.261719 747.652344 461.921875 748.386719 461.621094 C 749.121094 461.316406 749.871094 461.046875 750.632812 460.816406 C 751.394531 460.585938 752.164062 460.390625 752.945312 460.238281 C 753.726562 460.082031 754.511719 459.964844 755.304688 459.886719 C 756.09375 459.808594 756.890625 459.769531 757.683594 459.769531 C 758.480469 459.769531 759.273438 459.808594 760.066406 459.886719 C 760.859375 459.964844 761.644531 460.082031 762.425781 460.238281 C 763.203125 460.390625 763.976562 460.585938 764.738281 460.816406 C 765.496094 461.046875 766.246094 461.316406 766.980469 461.621094 C 767.714844 461.921875 768.433594 462.261719 769.136719 462.636719 C 769.839844 463.011719 770.519531 463.421875 771.179688 463.863281 C 771.84375 464.304688 772.480469 464.78125 773.097656 465.285156 C 773.710938 465.789062 774.300781 466.324219 774.863281 466.886719 C 775.425781 467.449219 775.957031 468.035156 776.464844 468.652344 C 776.96875 469.265625 777.441406 469.90625 777.882812 470.566406 C 778.324219 471.226562 778.734375 471.910156 779.109375 472.613281 C 779.484375 473.3125 779.824219 474.03125 780.128906 474.765625 C 780.433594 475.5 780.699219 476.25 780.933594 477.011719 C 781.164062 477.773438 781.355469 478.542969 781.511719 479.324219 C 781.667969 480.105469 781.78125 480.890625 781.859375 481.683594 C 781.9375 482.472656 781.976562 483.269531 781.976562 484.0625 C 781.976562 484.859375 781.9375 485.652344 781.859375 486.445312 C 781.78125 487.238281 781.667969 488.023438 781.511719 488.804688 C 781.355469 489.582031 781.164062 490.355469 780.933594 491.117188 C 780.699219 491.875 780.433594 492.625 780.128906 493.359375 C 779.824219 494.09375 779.484375 494.8125 779.109375 495.515625 C 778.734375 496.21875 778.324219 496.898438 777.882812 497.558594 C 777.441406 498.222656 776.96875 498.859375 776.464844 499.476562 C 775.957031 500.089844 775.425781 500.679688 774.863281 501.242188 C 774.300781 501.804688 773.710938 502.335938 773.097656 502.84375 C 772.480469 503.347656 771.84375 503.820312 771.179688 504.261719 C 770.519531 504.703125 769.839844 505.113281 769.136719 505.488281 C 768.433594 505.863281 767.714844 506.203125 766.980469 506.507812 C 766.246094 506.8125 765.496094 507.078125 764.738281 507.3125 C 763.976562 507.542969 763.203125 507.734375 762.425781 507.890625 C 761.644531 508.046875 760.859375 508.160156 760.066406 508.238281 C 759.273438 508.316406 758.480469 508.355469 757.683594 508.355469 C 756.890625 508.355469 756.09375 508.316406 755.304688 508.238281 C 754.511719 508.160156 753.726562 508.046875 752.945312 507.890625 C 752.164062 507.734375 751.394531 507.542969 750.632812 507.3125 C 749.871094 507.078125 749.121094 506.8125 748.386719 506.507812 C 747.652344 506.203125 746.933594 505.863281 746.234375 505.488281 C 745.53125 505.113281 744.847656 504.703125 744.1875 504.261719 C 743.527344 503.820312 742.886719 503.347656 742.273438 502.84375 C 741.65625 502.335938 741.070312 501.804688 740.507812 501.242188 C 739.945312 500.679688 739.410156 500.089844 738.90625 499.476562 C 738.402344 498.859375 737.925781 498.222656 737.484375 497.558594 C 737.042969 496.898438 736.632812 496.21875 736.257812 495.515625 C 735.882812 494.8125 735.542969 494.09375 735.242188 493.359375 C 734.9375 492.625 734.667969 491.875 734.4375 491.117188 C 734.207031 490.355469 734.011719 489.582031 733.859375 488.804688 C 733.703125 488.023438 733.585938 487.238281 733.507812 486.445312 C 733.429688 485.652344 733.390625 484.859375 733.390625 484.0625 Z M 733.390625 484.0625 " fill-opacity="1" fill-rule="nonzero"/></g><path fill="#ffffff" d="M 741.84375 484.5 C 741.925781 487.496094 742.839844 490.28125 744.363281 492.640625 C 744.507812 492.863281 744.660156 493.085938 744.816406 493.300781 C 747.6875 497.292969 752.375 499.890625 757.667969 499.890625 C 762.957031 499.890625 767.644531 497.292969 770.515625 493.304688 C 770.664062 493.097656 770.808594 492.886719 770.949219 492.675781 C 770.957031 492.664062 770.960938 492.652344 770.96875 492.640625 C 772.566406 490.167969 773.492188 487.222656 773.492188 484.0625 C 773.492188 475.46875 766.644531 468.476562 758.105469 468.242188 L 758.105469 468.238281 L 757.210938 468.238281 L 757.210938 468.242188 C 752.347656 468.378906 748.03125 470.714844 745.21875 474.285156 C 745.054688 474.496094 744.894531 474.710938 744.738281 474.929688 C 742.992188 477.394531 741.9375 480.382812 741.847656 483.609375 L 741.839844 483.609375 L 741.839844 484.5 Z M 757.210938 489.789062 L 757.210938 498.964844 C 755.664062 498.738281 754.085938 497.371094 752.8125 494.851562 C 752.183594 493.605469 751.660156 492.128906 751.277344 490.484375 C 753.082031 490.066406 755.089844 489.820312 757.210938 489.789062 Z M 758.105469 498.964844 L 758.105469 489.789062 C 760.234375 489.816406 762.246094 490.066406 764.054688 490.484375 C 763.671875 492.128906 763.148438 493.605469 762.519531 494.851562 C 761.242188 497.378906 759.660156 498.75 758.105469 498.964844 Z M 758.105469 484.5 L 758.105469 488.984375 C 760.285156 489.011719 762.351562 489.265625 764.226562 489.695312 C 764.546875 488.089844 764.734375 486.339844 764.761719 484.5 Z M 757.210938 484.5 L 757.210938 488.984375 C 755.039062 489.011719 752.976562 489.265625 751.105469 489.695312 C 750.785156 488.089844 750.597656 486.339844 750.570312 484.5 Z M 758.105469 483.609375 L 764.761719 483.609375 C 764.730469 481.46875 764.476562 479.449219 764.054688 477.632812 C 762.226562 478.039062 760.214844 478.277344 758.105469 478.308594 Z M 765.652344 484.5 C 765.625 486.410156 765.429688 488.230469 765.09375 489.910156 C 767.109375 490.453125 768.867188 491.210938 770.242188 492.117188 C 771.660156 489.910156 772.511719 487.300781 772.59375 484.5 Z M 772.59375 483.609375 L 765.652344 483.609375 C 765.621094 481.40625 765.363281 479.3125 764.921875 477.421875 C 766.820312 476.929688 768.492188 476.246094 769.847656 475.421875 C 771.5 477.746094 772.503906 480.5625 772.59375 483.609375 Z M 757.210938 483.609375 L 750.574219 483.609375 C 750.605469 481.46875 750.855469 479.449219 751.277344 477.632812 C 753.101562 478.039062 755.105469 478.277344 757.210938 478.308594 Z M 749.679688 483.609375 C 749.710938 481.40625 749.96875 479.3125 750.410156 477.421875 C 748.511719 476.929688 746.839844 476.246094 745.484375 475.421875 C 743.832031 477.746094 742.828125 480.5625 742.738281 483.609375 Z M 742.738281 484.5 C 742.820312 487.300781 743.671875 489.910156 745.089844 492.117188 C 746.46875 491.210938 748.222656 490.453125 750.238281 489.910156 C 749.902344 488.230469 749.707031 486.410156 749.679688 484.5 Z M 757.210938 469.164062 L 757.210938 477.503906 C 755.167969 477.472656 753.230469 477.242188 751.476562 476.851562 C 751.832031 475.523438 752.285156 474.316406 752.8125 473.273438 C 754.085938 470.753906 755.664062 469.386719 757.210938 469.164062 Z M 758.105469 477.503906 L 758.105469 469.160156 C 759.660156 469.378906 761.242188 470.746094 762.519531 473.273438 C 763.046875 474.316406 763.5 475.523438 763.855469 476.851562 C 762.097656 477.242188 760.15625 477.472656 758.105469 477.503906 Z M 764.921875 490.699219 C 764.082031 494.292969 762.582031 497.15625 760.734375 498.683594 C 764.445312 497.90625 767.652344 495.753906 769.792969 492.785156 C 769.398438 492.523438 768.964844 492.277344 768.496094 492.039062 C 767.453125 491.511719 766.25 491.058594 764.921875 490.699219 Z M 745.539062 492.785156 C 747.679688 495.753906 750.886719 497.90625 754.597656 498.683594 C 752.75 497.15625 751.25 494.292969 750.410156 490.699219 C 749.082031 491.058594 747.878906 491.511719 746.835938 492.039062 C 746.367188 492.277344 745.933594 492.523438 745.539062 492.785156 Z M 768.496094 475.25 C 768.800781 475.097656 769.089844 474.9375 769.363281 474.777344 C 767.234375 472.097656 764.203125 470.167969 760.734375 469.445312 C 762.445312 470.855469 763.859375 473.417969 764.726562 476.644531 C 766.128906 476.277344 767.402344 475.804688 768.496094 475.25 Z M 754.597656 469.445312 C 752.886719 470.855469 751.472656 473.417969 750.605469 476.644531 C 749.203125 476.277344 747.933594 475.804688 746.835938 475.25 C 746.53125 475.097656 746.242188 474.9375 745.96875 474.777344 C 748.097656 472.097656 751.128906 470.167969 754.597656 469.445312 Z M 754.597656 469.445312 " fill-opacity="1" fill-rule="evenodd"/><g fill="#223047" fill-opacity="1"><g transform="translate(784.78997, 494.430493)"><g><path d="M 13.546875 -15.578125 C 12.191406 -15.578125 11.023438 -15.070312 10.046875 -14.0625 C 9.066406 -13.0625 8.578125 -11.859375 8.578125 -10.453125 C 8.578125 -9.015625 9.066406 -7.789062 10.046875 -6.78125 C 11.023438 -5.78125 12.191406 -5.28125 13.546875 -5.28125 C 14.191406 -5.28125 14.804688 -5.363281 15.390625 -5.53125 C 15.972656 -5.695312 16.398438 -5.859375 16.671875 -6.015625 L 17.046875 -6.265625 L 19.484375 -1.265625 C 19.296875 -1.128906 19.03125 -0.957031 18.6875 -0.75 C 18.351562 -0.550781 17.582031 -0.273438 16.375 0.078125 C 15.164062 0.429688 13.867188 0.609375 12.484375 0.609375 C 9.421875 0.609375 6.726562 -0.46875 4.40625 -2.625 C 2.09375 -4.78125 0.9375 -7.363281 0.9375 -10.375 C 0.9375 -13.40625 2.09375 -16.007812 4.40625 -18.1875 C 6.726562 -20.375 9.421875 -21.46875 12.484375 -21.46875 C 13.867188 -21.46875 15.144531 -21.304688 16.3125 -20.984375 C 17.476562 -20.660156 18.304688 -20.335938 18.796875 -20.015625 L 19.484375 -19.515625 L 17.046875 -14.59375 C 16.148438 -15.25 14.984375 -15.578125 13.546875 -15.578125 Z M 13.546875 -15.578125 "/></g></g></g><g fill="#223047" fill-opacity="1"><g transform="translate(804.756369, 494.430493)"><g><path d="M 4.40625 -2.484375 C 2.09375 -4.546875 0.9375 -7.1875 0.9375 -10.40625 C 0.9375 -13.632812 2.140625 -16.285156 4.546875 -18.359375 C 6.960938 -20.429688 9.945312 -21.46875 13.5 -21.46875 C 17 -21.46875 19.945312 -20.425781 22.34375 -18.34375 C 24.75 -16.257812 25.953125 -13.613281 25.953125 -10.40625 C 25.953125 -7.207031 24.773438 -4.570312 22.421875 -2.5 C 20.078125 -0.425781 17.101562 0.609375 13.5 0.609375 C 9.757812 0.609375 6.726562 -0.421875 4.40625 -2.484375 Z M 9.984375 -13.9375 C 9.046875 -13.019531 8.578125 -11.84375 8.578125 -10.40625 C 8.578125 -8.96875 9.023438 -7.796875 9.921875 -6.890625 C 10.816406 -5.984375 12 -5.53125 13.46875 -5.53125 C 14.875 -5.53125 16.03125 -5.988281 16.9375 -6.90625 C 17.84375 -7.832031 18.296875 -9 18.296875 -10.40625 C 18.296875 -11.84375 17.828125 -13.019531 16.890625 -13.9375 C 15.960938 -14.863281 14.820312 -15.328125 13.46875 -15.328125 C 12.082031 -15.328125 10.921875 -14.863281 9.984375 -13.9375 Z M 9.984375 -13.9375 "/></g></g></g><g fill="#223047" fill-opacity="1"><g transform="translate(831.635781, 494.430493)"><g><path d="M 2.4375 0 L 2.4375 -20.859375 L 9.640625 -20.859375 L 9.640625 -17.859375 L 9.71875 -17.859375 C 9.769531 -17.960938 9.859375 -18.09375 9.984375 -18.25 C 10.109375 -18.414062 10.375 -18.703125 10.78125 -19.109375 C 11.1875 -19.515625 11.617188 -19.878906 12.078125 -20.203125 C 12.535156 -20.535156 13.128906 -20.828125 13.859375 -21.078125 C 14.597656 -21.335938 15.347656 -21.46875 16.109375 -21.46875 C 16.890625 -21.46875 17.660156 -21.359375 18.421875 -21.140625 C 19.179688 -20.929688 19.738281 -20.71875 20.09375 -20.5 L 20.65625 -20.171875 L 17.65625 -14.078125 C 16.757812 -14.835938 15.507812 -15.21875 13.90625 -15.21875 C 13.039062 -15.21875 12.296875 -15.023438 11.671875 -14.640625 C 11.046875 -14.265625 10.601562 -13.804688 10.34375 -13.265625 C 10.09375 -12.722656 9.910156 -12.257812 9.796875 -11.875 C 9.691406 -11.5 9.640625 -11.203125 9.640625 -10.984375 L 9.640625 0 Z M 2.4375 0 "/></g></g></g><g fill="#223047" fill-opacity="1"><g transform="translate(851.886838, 494.430493)"><g><path d="M 9.234375 -20.859375 L 9.234375 -10.9375 C 9.234375 -8.875 9.546875 -7.410156 10.171875 -6.546875 C 10.796875 -5.679688 11.851562 -5.25 13.34375 -5.25 C 14.832031 -5.25 15.890625 -5.679688 16.515625 -6.546875 C 17.140625 -7.410156 17.453125 -8.875 17.453125 -10.9375 L 17.453125 -20.859375 L 24.640625 -20.859375 L 24.640625 -9.1875 C 24.640625 -5.71875 23.738281 -3.21875 21.9375 -1.6875 C 20.132812 -0.15625 17.265625 0.609375 13.328125 0.609375 C 9.398438 0.609375 6.535156 -0.15625 4.734375 -1.6875 C 2.929688 -3.21875 2.03125 -5.71875 2.03125 -9.1875 L 2.03125 -20.859375 Z M 9.234375 -20.859375 "/></g></g></g><g fill="#223047" fill-opacity="1"><g transform="translate(878.562921, 494.430493)"><g><path d="M 2.4375 0 L 2.4375 -20.859375 L 9.640625 -20.859375 L 9.640625 -18.671875 L 9.71875 -18.671875 C 11.59375 -20.535156 13.585938 -21.46875 15.703125 -21.46875 C 17.222656 -21.46875 18.644531 -21.15625 19.96875 -20.53125 C 21.300781 -19.914062 22.304688 -18.957031 22.984375 -17.65625 C 25.097656 -20.195312 27.398438 -21.46875 29.890625 -21.46875 C 32.117188 -21.46875 34.03125 -20.84375 35.625 -19.59375 C 37.226562 -18.351562 38.03125 -16.40625 38.03125 -13.75 L 38.03125 0 L 30.828125 0 L 30.828125 -11.796875 C 30.828125 -12.910156 30.519531 -13.835938 29.90625 -14.578125 C 29.300781 -15.328125 28.390625 -15.703125 27.171875 -15.703125 C 26.109375 -15.703125 25.300781 -15.378906 24.75 -14.734375 C 24.195312 -14.097656 23.890625 -13.335938 23.828125 -12.453125 L 23.828125 0 L 16.640625 0 L 16.640625 -11.796875 C 16.640625 -12.910156 16.332031 -13.835938 15.71875 -14.578125 C 15.101562 -15.328125 14.1875 -15.703125 12.96875 -15.703125 C 11.863281 -15.703125 11.03125 -15.351562 10.46875 -14.65625 C 9.914062 -13.96875 9.640625 -13.148438 9.640625 -12.203125 L 9.640625 0 Z M 2.4375 0 "/></g></g></g><g fill="#223047" fill-opacity="1"><g transform="translate(918.617718, 494.430493)"><g><path d="M 23.90625 -18.25 C 25.863281 -16.113281 26.84375 -13.5 26.84375 -10.40625 C 26.84375 -7.320312 25.863281 -4.710938 23.90625 -2.578125 C 21.957031 -0.453125 19.476562 0.609375 16.46875 0.609375 C 13.707031 0.609375 11.429688 -0.378906 9.640625 -2.359375 L 9.5625 -2.359375 L 9.5625 0 L 2.4375 0 L 2.4375 -34.984375 L 9.640625 -34.984375 L 9.640625 -18.875 C 11.429688 -20.601562 13.707031 -21.46875 16.46875 -21.46875 C 19.476562 -21.46875 21.957031 -20.394531 23.90625 -18.25 Z M 17.859375 -6.890625 C 18.753906 -7.796875 19.203125 -8.96875 19.203125 -10.40625 C 19.203125 -11.84375 18.734375 -13.019531 17.796875 -13.9375 C 16.859375 -14.863281 15.695312 -15.328125 14.3125 -15.328125 C 12.957031 -15.328125 11.8125 -14.863281 10.875 -13.9375 C 9.9375 -13.019531 9.46875 -11.84375 9.46875 -10.40625 C 9.46875 -9 9.921875 -7.832031 10.828125 -6.90625 C 11.742188 -5.988281 12.90625 -5.53125 14.3125 -5.53125 C 15.78125 -5.53125 16.960938 -5.984375 17.859375 -6.890625 Z M 17.859375 -6.890625 "/></g></g></g><g fill="#223047" fill-opacity="1"><g transform="translate(946.391752, 494.430493)"><g><path d="M 3.859375 -2.578125 C 1.910156 -4.710938 0.9375 -7.320312 0.9375 -10.40625 C 0.9375 -13.5 1.910156 -16.113281 3.859375 -18.25 C 5.816406 -20.394531 8.300781 -21.46875 11.3125 -21.46875 C 14.070312 -21.46875 16.347656 -20.601562 18.140625 -18.875 L 18.140625 -20.859375 L 25.34375 -20.859375 L 25.34375 0 L 18.21875 0 L 18.21875 -2.359375 L 18.140625 -2.359375 C 16.347656 -0.378906 14.070312 0.609375 11.3125 0.609375 C 8.300781 0.609375 5.816406 -0.453125 3.859375 -2.578125 Z M 9.984375 -13.9375 C 9.046875 -13.019531 8.578125 -11.84375 8.578125 -10.40625 C 8.578125 -8.96875 9.023438 -7.796875 9.921875 -6.890625 C 10.816406 -5.984375 12 -5.53125 13.46875 -5.53125 C 14.875 -5.53125 16.03125 -5.988281 16.9375 -6.90625 C 17.84375 -7.832031 18.296875 -9 18.296875 -10.40625 C 18.296875 -11.84375 17.828125 -13.019531 16.890625 -13.9375 C 15.960938 -14.863281 14.820312 -15.328125 13.46875 -15.328125 C 12.082031 -15.328125 10.921875 -14.863281 9.984375 -13.9375 Z M 9.984375 -13.9375 "/></g></g></g><g fill="#223047" fill-opacity="1"><g transform="translate(974.165785, 494.430493)"><g><path d="M 7.078125 -8.703125 C 8.378906 -8.703125 9.484375 -8.25 10.390625 -7.34375 C 11.296875 -6.4375 11.75 -5.332031 11.75 -4.03125 C 11.75 -2.75 11.296875 -1.65625 10.390625 -0.75 C 9.484375 0.15625 8.378906 0.609375 7.078125 0.609375 C 5.804688 0.609375 4.710938 0.15625 3.796875 -0.75 C 2.890625 -1.65625 2.4375 -2.75 2.4375 -4.03125 C 2.4375 -5.332031 2.890625 -6.4375 3.796875 -7.34375 C 4.710938 -8.25 5.804688 -8.703125 7.078125 -8.703125 Z M 7.078125 -8.703125 "/></g></g></g><g fill="#223047" fill-opacity="1"><g transform="translate(988.357778, 494.430493)"><g><path d="M 3.859375 -2.578125 C 1.910156 -4.710938 0.9375 -7.320312 0.9375 -10.40625 C 0.9375 -13.5 1.910156 -16.113281 3.859375 -18.25 C 5.816406 -20.394531 8.300781 -21.46875 11.3125 -21.46875 C 14.070312 -21.46875 16.347656 -20.601562 18.140625 -18.875 L 18.140625 -34.984375 L 25.34375 -34.984375 L 25.34375 0 L 18.21875 0 L 18.21875 -2.359375 L 18.140625 -2.359375 C 16.347656 -0.378906 14.070312 0.609375 11.3125 0.609375 C 8.300781 0.609375 5.816406 -0.453125 3.859375 -2.578125 Z M 9.984375 -13.9375 C 9.046875 -13.019531 8.578125 -11.84375 8.578125 -10.40625 C 8.578125 -8.96875 9.023438 -7.796875 9.921875 -6.890625 C 10.816406 -5.984375 12 -5.53125 13.46875 -5.53125 C 14.875 -5.53125 16.03125 -5.988281 16.9375 -6.90625 C 17.84375 -7.832031 18.296875 -9 18.296875 -10.40625 C 18.296875 -11.84375 17.828125 -13.019531 16.890625 -13.9375 C 15.960938 -14.863281 14.820312 -15.328125 13.46875 -15.328125 C 12.082031 -15.328125 10.921875 -14.863281 9.984375 -13.9375 Z M 9.984375 -13.9375 "/></g></g></g><g fill="#223047" fill-opacity="1"><g transform="translate(1016.131811, 494.430493)"><g><path d="M 3.125 -32.484375 C 3.96875 -33.328125 4.972656 -33.75 6.140625 -33.75 C 7.304688 -33.75 8.304688 -33.328125 9.140625 -32.484375 C 9.984375 -31.648438 10.40625 -30.648438 10.40625 -29.484375 C 10.40625 -28.316406 9.984375 -27.3125 9.140625 -26.46875 C 8.304688 -25.632812 7.304688 -25.21875 6.140625 -25.21875 C 4.972656 -25.21875 3.96875 -25.632812 3.125 -26.46875 C 2.289062 -27.3125 1.875 -28.316406 1.875 -29.484375 C 1.875 -30.648438 2.289062 -31.648438 3.125 -32.484375 Z M 2.4375 -20.859375 L 2.4375 0 L 9.640625 0 L 9.640625 -20.859375 Z M 2.4375 -20.859375 "/></g></g></g><g fill="#223047" fill-opacity="1"><g transform="translate(1028.412574, 494.430493)"><g><path d="M 1.5 5.125 L 7.40625 2.234375 C 8.488281 4.023438 10.375 4.921875 13.0625 4.921875 C 14.300781 4.921875 15.457031 4.519531 16.53125 3.71875 C 17.601562 2.914062 18.140625 1.691406 18.140625 0.046875 L 18.140625 -1.5 C 16.867188 -0.09375 14.59375 0.609375 11.3125 0.609375 C 8.300781 0.609375 5.816406 -0.453125 3.859375 -2.578125 C 1.910156 -4.710938 0.9375 -7.320312 0.9375 -10.40625 C 0.9375 -13.5 1.910156 -16.113281 3.859375 -18.25 C 5.816406 -20.394531 8.300781 -21.46875 11.3125 -21.46875 C 13.988281 -21.46875 16.222656 -20.644531 18.015625 -19 L 18.140625 -19 L 18.140625 -20.859375 L 25.34375 -20.859375 L 25.34375 0.5625 C 25.34375 3.957031 24.21875 6.578125 21.96875 8.421875 C 19.71875 10.265625 16.75 11.1875 13.0625 11.1875 C 7.09375 11.1875 3.238281 9.164062 1.5 5.125 Z M 9.984375 -13.9375 C 9.046875 -13.019531 8.578125 -11.84375 8.578125 -10.40625 C 8.578125 -8.96875 9.023438 -7.796875 9.921875 -6.890625 C 10.816406 -5.984375 12 -5.53125 13.46875 -5.53125 C 14.875 -5.53125 16.03125 -5.988281 16.9375 -6.90625 C 17.84375 -7.832031 18.296875 -9 18.296875 -10.40625 C 18.296875 -11.84375 17.828125 -13.019531 16.890625 -13.9375 C 15.960938 -14.863281 14.820312 -15.328125 13.46875 -15.328125 C 12.082031 -15.328125 10.921875 -14.863281 9.984375 -13.9375 Z M 9.984375 -13.9375 "/></g></g></g><g fill="#223047" fill-opacity="1"><g transform="translate(1056.186608, 494.430493)"><g><path d="M 3.125 -32.484375 C 3.96875 -33.328125 4.972656 -33.75 6.140625 -33.75 C 7.304688 -33.75 8.304688 -33.328125 9.140625 -32.484375 C 9.984375 -31.648438 10.40625 -30.648438 10.40625 -29.484375 C 10.40625 -28.316406 9.984375 -27.3125 9.140625 -26.46875 C 8.304688 -25.632812 7.304688 -25.21875 6.140625 -25.21875 C 4.972656 -25.21875 3.96875 -25.632812 3.125 -26.46875 C 2.289062 -27.3125 1.875 -28.316406 1.875 -29.484375 C 1.875 -30.648438 2.289062 -31.648438 3.125 -32.484375 Z M 2.4375 -20.859375 L 2.4375 0 L 9.640625 0 L 9.640625 -20.859375 Z M 2.4375 -20.859375 "/></g></g></g><g fill="#223047" fill-opacity="1"><g transform="translate(1068.467371, 494.430493)"><g><path d="M 3.65625 -20.859375 L 3.65625 -28.640625 L 10.859375 -28.640625 L 10.859375 -20.859375 L 15.25 -20.859375 L 15.25 -15.375 L 10.859375 -15.375 L 10.859375 -8.75 C 10.859375 -6.820312 11.398438 -5.859375 12.484375 -5.859375 C 12.753906 -5.859375 13.035156 -5.910156 13.328125 -6.015625 C 13.628906 -6.128906 13.863281 -6.238281 14.03125 -6.34375 L 14.28125 -6.5 L 16.0625 -0.6875 C 14.519531 0.175781 12.757812 0.609375 10.78125 0.609375 C 9.425781 0.609375 8.257812 0.375 7.28125 -0.09375 C 6.300781 -0.570312 5.5625 -1.210938 5.0625 -2.015625 C 4.5625 -2.816406 4.203125 -3.65625 3.984375 -4.53125 C 3.765625 -5.414062 3.65625 -6.359375 3.65625 -7.359375 L 3.65625 -15.375 L 0.65625 -15.375 L 0.65625 -20.859375 Z M 3.65625 -20.859375 "/></g></g></g><g fill="#223047" fill-opacity="1"><g transform="translate(1084.529958, 494.430493)"><g><path d="M 3.859375 -2.578125 C 1.910156 -4.710938 0.9375 -7.320312 0.9375 -10.40625 C 0.9375 -13.5 1.910156 -16.113281 3.859375 -18.25 C 5.816406 -20.394531 8.300781 -21.46875 11.3125 -21.46875 C 14.070312 -21.46875 16.347656 -20.601562 18.140625 -18.875 L 18.140625 -20.859375 L 25.34375 -20.859375 L 25.34375 0 L 18.21875 0 L 18.21875 -2.359375 L 18.140625 -2.359375 C 16.347656 -0.378906 14.070312 0.609375 11.3125 0.609375 C 8.300781 0.609375 5.816406 -0.453125 3.859375 -2.578125 Z M 9.984375 -13.9375 C 9.046875 -13.019531 8.578125 -11.84375 8.578125 -10.40625 C 8.578125 -8.96875 9.023438 -7.796875 9.921875 -6.890625 C 10.816406 -5.984375 12 -5.53125 13.46875 -5.53125 C 14.875 -5.53125 16.03125 -5.988281 16.9375 -6.90625 C 17.84375 -7.832031 18.296875 -9 18.296875 -10.40625 C 18.296875 -11.84375 17.828125 -13.019531 16.890625 -13.9375 C 15.960938 -14.863281 14.820312 -15.328125 13.46875 -15.328125 C 12.082031 -15.328125 10.921875 -14.863281 9.984375 -13.9375 Z M 9.984375 -13.9375 "/></g></g></g><g fill="#223047" fill-opacity="1"><g transform="translate(1112.303991, 494.430493)"><g><path d="M 2.4375 0 L 2.4375 -34.984375 L 9.640625 -34.984375 L 9.640625 0 Z M 2.4375 0 "/></g></g></g><g clip-path="url(#871b5c6c97)"><path fill="#225db4" d="M 731.128906 483.984375 C 731.128906 497.359375 720.289062 508.199219 706.914062 508.199219 C 693.539062 508.199219 682.695312 497.359375 682.695312 483.984375 C 682.695312 470.609375 693.539062 459.765625 706.914062 459.765625 C 720.289062 459.765625 731.128906 470.609375 731.128906 483.984375 Z M 731.128906 483.984375 " fill-opacity="1" fill-rule="nonzero"/></g><path fill="#ffffff" d="M 697.769531 471.921875 L 716.546875 471.921875 C 718.328125 471.921875 719.785156 473.378906 719.785156 475.164062 L 719.785156 493.9375 C 719.785156 495.722656 718.328125 497.179688 716.546875 497.179688 L 697.769531 497.179688 C 695.988281 497.179688 694.527344 495.722656 694.527344 493.9375 L 694.527344 475.164062 C 694.527344 473.378906 695.988281 471.921875 697.769531 471.921875 Z M 712.929688 474.726562 C 712.300781 474.726562 711.792969 475.238281 711.792969 475.867188 L 711.792969 478.585938 C 711.792969 479.210938 712.300781 479.722656 712.929688 479.722656 L 715.78125 479.722656 C 716.40625 479.722656 716.921875 479.210938 716.921875 478.585938 L 716.921875 475.867188 C 716.921875 475.238281 716.40625 474.726562 715.78125 474.726562 Z M 716.929688 482.601562 L 714.707031 482.601562 C 714.917969 483.292969 715.035156 484.015625 715.035156 484.769531 C 715.035156 488.972656 711.515625 492.378906 707.179688 492.378906 C 702.84375 492.378906 699.328125 488.972656 699.328125 484.769531 C 699.328125 484.015625 699.445312 483.292969 699.652344 482.601562 L 697.335938 482.601562 L 697.335938 493.273438 C 697.335938 493.824219 697.785156 494.273438 698.339844 494.273438 L 715.929688 494.273438 C 716.480469 494.273438 716.929688 493.824219 716.929688 493.273438 Z M 707.179688 479.582031 C 704.378906 479.582031 702.109375 481.78125 702.109375 484.496094 C 702.109375 487.210938 704.378906 489.410156 707.179688 489.410156 C 709.984375 489.410156 712.253906 487.210938 712.253906 484.496094 C 712.253906 481.78125 709.984375 479.582031 707.179688 479.582031 Z M 707.179688 479.582031 " fill-opacity="1" fill-rule="nonzero"/><g clip-path="url(#746aa8c824)"><path fill="#225db4" d="M 680.335938 483.917969 C 680.335938 484.707031 680.296875 485.496094 680.21875 486.285156 C 680.140625 487.070312 680.027344 487.851562 679.871094 488.628906 C 679.71875 489.402344 679.527344 490.167969 679.296875 490.925781 C 679.066406 491.683594 678.800781 492.425781 678.5 493.15625 C 678.195312 493.886719 677.859375 494.601562 677.484375 495.300781 C 677.113281 495.996094 676.707031 496.675781 676.265625 497.332031 C 675.828125 497.988281 675.355469 498.625 674.855469 499.234375 C 674.355469 499.847656 673.824219 500.433594 673.265625 500.992188 C 672.703125 501.550781 672.121094 502.082031 671.507812 502.582031 C 670.898438 503.085938 670.261719 503.554688 669.605469 503.996094 C 668.945312 504.433594 668.269531 504.839844 667.570312 505.214844 C 666.875 505.585938 666.160156 505.921875 665.429688 506.226562 C 664.699219 506.527344 663.957031 506.792969 663.199219 507.023438 C 662.441406 507.253906 661.675781 507.445312 660.898438 507.601562 C 660.125 507.753906 659.34375 507.871094 658.554688 507.949219 C 657.769531 508.027344 656.980469 508.0625 656.1875 508.0625 C 655.398438 508.0625 654.609375 508.027344 653.824219 507.949219 C 653.035156 507.871094 652.253906 507.753906 651.476562 507.601562 C 650.703125 507.445312 649.9375 507.253906 649.179688 507.023438 C 648.421875 506.792969 647.679688 506.527344 646.949219 506.226562 C 646.21875 505.921875 645.503906 505.585938 644.804688 505.214844 C 644.109375 504.839844 643.429688 504.433594 642.773438 503.996094 C 642.117188 503.554688 641.480469 503.085938 640.871094 502.582031 C 640.257812 502.082031 639.675781 501.550781 639.113281 500.992188 C 638.554688 500.433594 638.023438 499.847656 637.523438 499.234375 C 637.023438 498.625 636.550781 497.988281 636.113281 497.332031 C 635.671875 496.675781 635.265625 495.996094 634.894531 495.300781 C 634.519531 494.601562 634.183594 493.886719 633.878906 493.15625 C 633.578125 492.425781 633.3125 491.683594 633.082031 490.925781 C 632.851562 490.167969 632.660156 489.402344 632.507812 488.628906 C 632.351562 487.851562 632.234375 487.070312 632.160156 486.285156 C 632.082031 485.496094 632.042969 484.707031 632.042969 483.917969 C 632.042969 483.125 632.082031 482.335938 632.160156 481.550781 C 632.234375 480.761719 632.351562 479.980469 632.507812 479.207031 C 632.660156 478.429688 632.851562 477.664062 633.082031 476.90625 C 633.3125 476.152344 633.578125 475.40625 633.878906 474.675781 C 634.183594 473.945312 634.519531 473.230469 634.894531 472.535156 C 635.265625 471.835938 635.671875 471.160156 636.113281 470.5 C 636.550781 469.84375 637.023438 469.210938 637.523438 468.597656 C 638.023438 467.988281 638.554688 467.402344 639.113281 466.84375 C 639.675781 466.285156 640.257812 465.753906 640.871094 465.25 C 641.480469 464.75 642.117188 464.277344 642.773438 463.839844 C 643.429688 463.398438 644.109375 462.992188 644.804688 462.621094 C 645.503906 462.25 646.21875 461.910156 646.949219 461.609375 C 647.679688 461.304688 648.421875 461.039062 649.179688 460.808594 C 649.9375 460.582031 650.703125 460.386719 651.476562 460.234375 C 652.253906 460.078125 653.035156 459.964844 653.824219 459.886719 C 654.609375 459.808594 655.398438 459.769531 656.1875 459.769531 C 656.980469 459.769531 657.769531 459.808594 658.554688 459.886719 C 659.34375 459.964844 660.125 460.078125 660.898438 460.234375 C 661.675781 460.386719 662.441406 460.582031 663.199219 460.808594 C 663.957031 461.039062 664.699219 461.304688 665.429688 461.609375 C 666.160156 461.910156 666.875 462.25 667.570312 462.621094 C 668.269531 462.992188 668.945312 463.398438 669.605469 463.839844 C 670.261719 464.277344 670.898438 464.75 671.507812 465.25 C 672.121094 465.753906 672.703125 466.285156 673.265625 466.84375 C 673.824219 467.402344 674.355469 467.988281 674.855469 468.597656 C 675.355469 469.210938 675.828125 469.84375 676.265625 470.5 C 676.707031 471.160156 677.113281 471.835938 677.484375 472.535156 C 677.859375 473.230469 678.195312 473.945312 678.5 474.675781 C 678.800781 475.40625 679.066406 476.152344 679.296875 476.90625 C 679.527344 477.664062 679.71875 478.429688 679.871094 479.207031 C 680.027344 479.980469 680.140625 480.761719 680.21875 481.550781 C 680.296875 482.335938 680.335938 483.125 680.335938 483.917969 Z M 680.335938 483.917969 " fill-opacity="1" fill-rule="nonzero"/></g><g clip-path="url(#2414832ad8)"><g clip-path="url(#cdefde5298)"><path fill="#ffffff" d="M 646.757812 465.238281 L 646.757812 502.59375 L 665.476562 502.59375 L 665.476562 465.238281 Z M 646.757812 465.238281 " fill-opacity="1" fill-rule="nonzero"/></g></g><g fill="#223047" fill-opacity="1"><g transform="translate(333.820463, 337.150731)"><g><path d="M 107.933594 5.582031 C 94.597656 5.582031 82.113281 3.101562 70.484375 -1.859375 C 58.851562 -6.824219 48.695312 -13.609375 40.011719 -22.214844 C 31.324219 -30.820312 24.464844 -40.941406 19.421875 -52.570312 C 14.382812 -64.203125 11.863281 -76.609375 11.863281 -89.789062 C 11.863281 -102.972656 14.382812 -115.378906 19.421875 -127.007812 C 24.464844 -138.640625 31.324219 -148.757812 40.011719 -157.363281 C 48.695312 -165.972656 58.851562 -172.792969 70.484375 -177.835938 C 82.113281 -182.875 94.597656 -185.394531 107.933594 -185.394531 C 121.113281 -185.394531 133.558594 -182.875 145.269531 -177.835938 C 156.976562 -172.792969 167.171875 -165.972656 175.855469 -157.363281 C 184.542969 -148.757812 191.402344 -138.640625 196.445312 -127.007812 C 201.484375 -115.378906 204.003906 -102.972656 204.003906 -89.789062 C 204.003906 -76.609375 201.484375 -64.203125 196.445312 -52.570312 C 191.402344 -40.941406 184.542969 -30.820312 175.855469 -22.214844 C 167.171875 -13.609375 156.976562 -6.824219 145.269531 -1.859375 C 133.558594 3.101562 121.113281 5.582031 107.933594 5.582031 Z M 107.933594 -139.335938 C 101.109375 -139.335938 94.789062 -137.980469 88.976562 -135.265625 C 83.160156 -132.550781 78.160156 -128.945312 73.972656 -124.449219 C 69.785156 -119.953125 66.488281 -114.71875 64.085938 -108.746094 C 61.683594 -102.777344 60.480469 -96.457031 60.480469 -89.789062 C 60.480469 -83.277344 61.683594 -76.996094 64.085938 -70.949219 C 66.488281 -64.898438 69.785156 -59.628906 73.972656 -55.128906 C 78.160156 -50.632812 83.160156 -47.027344 88.976562 -44.3125 C 94.789062 -41.597656 101.109375 -40.242188 107.933594 -40.242188 C 114.757812 -40.242188 121.078125 -41.597656 126.890625 -44.3125 C 132.707031 -47.027344 137.707031 -50.632812 141.894531 -55.128906 C 146.082031 -59.628906 149.378906 -64.898438 151.78125 -70.949219 C 154.183594 -76.996094 155.386719 -83.277344 155.386719 -89.789062 C 155.386719 -96.457031 154.183594 -102.777344 151.78125 -108.746094 C 149.378906 -114.71875 146.082031 -119.953125 141.894531 -124.449219 C 137.707031 -128.945312 132.707031 -132.550781 126.890625 -135.265625 C 121.078125 -137.980469 114.757812 -139.335938 107.933594 -139.335938 Z M 107.933594 -139.335938 "/></g></g></g><g fill="#223047" fill-opacity="1"><g transform="translate(548.273315, 337.150731)"><g><path d="M 121.65625 0 L 90.253906 -55.828125 L 59.78125 -55.828125 L 60.015625 0 L 10.234375 0 L 10.234375 -180.507812 L 100.722656 -180.507812 C 105.066406 -180.507812 109.484375 -179.695312 113.980469 -178.066406 C 118.480469 -176.4375 122.820312 -174.269531 127.007812 -171.554688 C 131.195312 -168.839844 135.070312 -165.777344 138.640625 -162.367188 C 142.207031 -158.953125 145.230469 -155.464844 147.710938 -151.898438 C 150.8125 -147.402344 153.175781 -142.167969 154.804688 -136.195312 C 156.433594 -130.226562 157.246094 -124.527344 157.246094 -119.097656 C 157.246094 -110.105469 155.15625 -101.730469 150.96875 -93.976562 C 146.78125 -86.222656 140.964844 -79.710938 133.519531 -74.4375 L 175.855469 0 Z M 86.53125 -140.5 L 58.386719 -140.5 L 58.386719 -101.421875 L 86.53125 -101.421875 C 89.324219 -101.421875 91.960938 -101.925781 94.441406 -102.933594 C 96.921875 -103.941406 99.09375 -105.335938 100.957031 -107.121094 C 102.816406 -108.902344 104.289062 -110.957031 105.375 -113.285156 C 106.460938 -115.609375 107.003906 -118.167969 107.003906 -120.960938 C 107.003906 -123.75 106.460938 -126.308594 105.375 -128.636719 C 104.289062 -130.960938 102.816406 -133.015625 100.957031 -134.800781 C 99.09375 -136.585938 96.921875 -137.980469 94.441406 -138.988281 C 91.960938 -139.996094 89.324219 -140.5 86.53125 -140.5 Z M 86.53125 -140.5 "/></g></g></g><g fill="#223047" fill-opacity="1"><g transform="translate(729.697586, 337.150731)"><g><path d="M 162.832031 -66.0625 C 162.832031 -57.84375 161.472656 -50.089844 158.761719 -42.800781 C 156.046875 -35.511719 152.246094 -28.921875 147.363281 -23.027344 C 142.476562 -17.136719 136.699219 -12.058594 130.03125 -7.792969 C 123.363281 -3.527344 116.152344 -0.234375 108.398438 2.09375 C 104.988281 3.179688 101.496094 4.03125 97.929688 4.652344 C 94.363281 5.273438 90.796875 5.582031 87.230469 5.582031 C 83.664062 5.582031 80.136719 5.273438 76.648438 4.652344 C 73.15625 4.03125 69.707031 3.179688 66.296875 2.09375 C 58.542969 -0.234375 51.332031 -3.527344 44.664062 -7.792969 C 37.992188 -12.058594 32.21875 -17.136719 27.332031 -23.027344 C 22.449219 -28.921875 18.648438 -35.511719 15.933594 -42.800781 C 13.21875 -50.089844 11.863281 -57.84375 11.863281 -66.0625 L 11.863281 -180.507812 L 62.109375 -180.507812 L 62.109375 -69.085938 C 62.109375 -65.675781 62.804688 -62.535156 64.203125 -59.664062 C 65.597656 -56.796875 67.457031 -54.316406 69.785156 -52.222656 C 72.109375 -50.128906 74.785156 -48.5 77.808594 -47.335938 C 80.832031 -46.175781 83.972656 -45.59375 87.230469 -45.59375 C 90.640625 -45.59375 93.859375 -46.175781 96.882812 -47.335938 C 99.910156 -48.5 102.582031 -50.128906 104.910156 -52.222656 C 107.234375 -54.316406 109.097656 -56.796875 110.492188 -59.664062 C 111.886719 -62.535156 112.585938 -65.675781 112.585938 -69.085938 L 112.585938 -180.507812 L 162.832031 -180.507812 Z M 162.832031 -66.0625 "/></g></g></g><g fill="#223047" fill-opacity="1"><g transform="translate(905.0744, 337.150731)"><g><path d="M 147.945312 0 L 147.945312 -92.8125 L 109.328125 -29.078125 C 108.863281 -28.144531 108.089844 -27.527344 107.003906 -27.214844 C 105.917969 -26.90625 104.988281 -26.75 104.210938 -26.75 C 103.28125 -26.75 102.273438 -26.90625 101.1875 -27.214844 C 100.101562 -27.527344 99.328125 -28.144531 98.863281 -29.078125 L 60.246094 -92.8125 L 60.246094 0 L 13.027344 0 L 13.027344 -180.507812 L 57.222656 -180.507812 C 58.773438 -180.507812 60.09375 -179.8125 61.179688 -178.417969 L 103.980469 -107.003906 L 147.011719 -178.417969 C 148.097656 -179.8125 149.339844 -180.507812 150.734375 -180.507812 L 195.164062 -180.507812 L 195.164062 0 Z M 147.945312 0 "/></g></g></g><g fill="#223047" fill-opacity="1"><g transform="translate(1114.410161, 337.150731)"><g><path d="M 113.980469 0 L 11.628906 0 L 11.628906 -180.507812 L 106.074219 -180.507812 C 109.484375 -180.507812 113.011719 -180.082031 116.65625 -179.230469 C 120.300781 -178.378906 123.867188 -177.136719 127.355469 -175.507812 C 130.847656 -173.878906 134.101562 -171.980469 137.125 -169.808594 C 140.152344 -167.636719 142.75 -165.234375 144.917969 -162.597656 C 148.796875 -157.945312 151.78125 -152.75 153.875 -147.011719 C 155.96875 -141.273438 157.015625 -135.382812 157.015625 -129.335938 C 157.015625 -122.355469 155.621094 -115.648438 152.828125 -109.214844 C 150.035156 -102.777344 146.003906 -97.15625 140.730469 -92.347656 C 144.144531 -90.175781 147.285156 -87.539062 150.152344 -84.4375 C 153.023438 -81.335938 155.464844 -77.925781 157.480469 -74.203125 C 159.496094 -70.484375 161.085938 -66.566406 162.25 -62.457031 C 163.414062 -58.347656 163.992188 -54.355469 163.992188 -50.476562 C 163.992188 -43.652344 162.714844 -37.179688 160.15625 -31.054688 C 157.597656 -24.929688 154.03125 -19.578125 149.457031 -15.003906 C 144.878906 -10.429688 139.570312 -6.785156 133.519531 -4.070312 C 127.472656 -1.355469 120.960938 0 113.980469 0 Z M 91.417969 -144.222656 L 59.085938 -144.222656 L 59.085938 -107.46875 L 91.417969 -107.46875 C 96.378906 -107.46875 100.683594 -109.289062 104.328125 -112.933594 C 107.972656 -116.578125 109.792969 -120.882812 109.792969 -125.84375 C 109.792969 -130.808594 107.972656 -135.109375 104.328125 -138.753906 C 100.683594 -142.398438 96.378906 -144.222656 91.417969 -144.222656 Z M 93.046875 -74.667969 L 59.085938 -74.667969 L 59.085938 -38.148438 L 93.046875 -38.148438 C 98.164062 -38.148438 102.507812 -39.933594 106.074219 -43.5 C 109.640625 -47.066406 111.421875 -51.40625 111.421875 -56.527344 C 111.421875 -61.488281 109.640625 -65.753906 106.074219 -69.320312 C 102.507812 -72.886719 98.164062 -74.667969 93.046875 -74.667969 Z M 93.046875 -74.667969 "/></g></g></g><g fill="#223047" fill-opacity="1"><g transform="translate(1280.483154, 337.150731)"><g><path d="M 133.988281 0 L 124.683594 -24.890625 L 69.085938 -24.890625 L 59.78125 0 L 8.839844 0 L 75.601562 -180.507812 L 118.167969 -180.507812 L 184.929688 0 Z M 97 -114.445312 L 82.578125 -66.761719 L 111.191406 -66.761719 Z M 97 -114.445312 "/></g></g></g><path fill="#223047" d="M 260.652344 385.253906 C 240.214844 385.253906 221.148438 381.394531 203.445312 373.671875 C 185.742188 365.949219 170.296875 355.378906 157.109375 341.957031 C 144.84375 329.476562 134.996094 315.144531 127.558594 298.964844 L 153.824219 298.964844 L 153.824219 258.824219 L 115.839844 258.824219 C 114.957031 252.277344 114.511719 245.601562 114.511719 238.792969 C 114.511719 231.96875 114.957031 225.277344 115.847656 218.71875 L 153.824219 218.71875 L 153.824219 178.578125 L 127.578125 178.578125 C 135.011719 162.414062 144.855469 148.097656 157.109375 135.628906 C 170.296875 122.203125 185.742188 111.632812 203.445312 103.910156 C 221.148438 96.191406 240.214844 92.328125 260.652344 92.328125 C 279.1875 92.328125 297.007812 95.714844 314.117188 102.484375 C 331.226562 109.257812 347.03125 119.058594 361.523438 131.886719 L 304.496094 181.773438 C 290.710938 172.035156 276.21875 167.164062 261.007812 167.164062 C 251.027344 167.164062 241.761719 169.066406 233.207031 172.867188 C 224.652344 176.667969 217.285156 181.894531 211.109375 188.546875 C 204.929688 195.199219 200.058594 202.859375 196.492188 211.53125 C 195.523438 213.898438 194.679688 216.292969 193.972656 218.722656 L 153.824219 218.722656 L 153.824219 258.863281 L 193.878906 258.863281 C 194.605469 261.421875 195.476562 263.9375 196.492188 266.410156 C 200.058594 275.082031 204.929688 282.683594 211.109375 289.214844 C 217.285156 295.75 224.59375 300.976562 233.027344 304.894531 C 241.464844 308.816406 250.671875 310.773438 260.652344 310.773438 C 272.058594 310.773438 282.691406 308.164062 292.554688 302.9375 C 296.757812 300.707031 300.738281 298.089844 304.488281 295.082031 L 304.488281 295.085938 L 361.527344 345.335938 C 350.53125 355.527344 338.351562 363.902344 324.988281 370.464844 C 304.910156 380.324219 283.464844 385.253906 260.652344 385.253906 Z M 260.652344 385.253906 " fill-opacity="1" fill-rule="evenodd"/><path fill="#225db4" d="M 205.015625 241.304688 L 225.710938 241.304688 L 225.710938 261.992188 L 205.015625 261.992188 Z M 72.757812 165.867188 L 112.910156 165.867188 L 112.910156 206.011719 L 72.757812 206.011719 Z M 55.121094 261.691406 L 77.636719 261.691406 L 77.636719 284.203125 L 55.121094 284.203125 Z M 15.214844 235.160156 L 31.742188 235.160156 L 31.742188 251.683594 L 15.214844 251.683594 Z M 15.214844 235.160156 " fill-opacity="1" fill-rule="evenodd"/><path fill="#009ee0" d="M 30.894531 265.285156 L 42.058594 265.285156 L 42.058594 276.445312 L 30.894531 276.445312 Z M 222.851562 218.453125 L 236.261719 218.453125 L 236.261719 231.855469 L 222.851562 231.855469 Z M 83.488281 284.746094 L 119.898438 284.746094 L 119.898438 321.148438 L 83.488281 321.148438 Z M 82.132812 231.777344 L 101.238281 231.777344 L 101.238281 250.882812 L 82.132812 250.882812 Z M 34.8125 201.054688 L 61.9375 201.054688 L 61.9375 228.171875 L 34.8125 228.171875 Z M 3.667969 203.9375 L 13.476562 203.9375 L 13.476562 213.742188 L 3.667969 213.742188 Z M 3.667969 203.9375 " fill-opacity="1" fill-rule="evenodd"/><g fill="#223047" fill-opacity="1"><g transform="translate(741.798304, 425.715396)"><g><path d="M 24.210938 1.640625 C 20.652344 1.640625 17.132812 1.21875 13.644531 0.375 C 10.15625 -0.46875 6.816406 -1.640625 3.625 -3.144531 C 3.535156 -3.144531 3.304688 -3.238281 2.941406 -3.417969 C 2.574219 -3.648438 2.394531 -3.808594 2.394531 -3.898438 C 2.394531 -3.945312 2.484375 -4.125 2.667969 -4.445312 C 2.847656 -4.765625 3.078125 -5.164062 3.351562 -5.640625 C 3.625 -6.121094 3.945312 -6.667969 4.308594 -7.285156 C 4.671875 -7.898438 5.039062 -8.527344 5.402344 -9.164062 C 6.179688 -10.441406 6.90625 -11.648438 7.589844 -12.789062 C 8.273438 -13.929688 8.753906 -14.75 9.027344 -15.25 C 9.621094 -15.023438 10.191406 -14.75 10.738281 -14.429688 C 13.199219 -13.199219 15.671875 -12.253906 18.15625 -11.59375 C 20.640625 -10.929688 23.273438 -10.601562 26.054688 -10.601562 C 26.832031 -10.601562 27.664062 -10.632812 28.550781 -10.703125 C 29.441406 -10.769531 30.25 -10.941406 30.980469 -11.214844 C 31.710938 -11.488281 32.3125 -11.910156 32.792969 -12.480469 C 33.273438 -13.050781 33.511719 -13.859375 33.511719 -14.910156 C 33.511719 -15.410156 33.375 -15.855469 33.101562 -16.242188 C 32.828125 -16.628906 32.484375 -16.972656 32.074219 -17.269531 C 31.664062 -17.566406 31.230469 -17.828125 30.773438 -18.054688 C 30.320312 -18.28125 29.886719 -18.464844 29.476562 -18.601562 C 28.519531 -18.964844 27.539062 -19.242188 26.535156 -19.421875 C 25.53125 -19.605469 24.527344 -19.808594 23.527344 -20.039062 C 22.203125 -20.355469 20.90625 -20.652344 19.628906 -20.925781 C 18.351562 -21.199219 17.121094 -21.519531 15.933594 -21.882812 C 14.703125 -22.25 13.53125 -22.648438 12.414062 -23.082031 C 11.296875 -23.515625 10.257812 -24.027344 9.300781 -24.621094 C 7.339844 -25.804688 5.777344 -27.390625 4.617188 -29.375 C 3.453125 -31.355469 2.871094 -33.988281 2.871094 -37.273438 C 2.871094 -38.410156 2.996094 -39.5625 3.25 -40.726562 C 3.5 -41.886719 3.875 -42.996094 4.375 -44.042969 C 5.378906 -46.140625 6.679688 -47.871094 8.273438 -49.242188 C 9.871094 -50.609375 11.636719 -51.679688 13.574219 -52.453125 C 15.511719 -53.230469 17.554688 -53.777344 19.695312 -54.097656 C 21.839844 -54.414062 23.980469 -54.574219 26.125 -54.574219 C 29.636719 -54.574219 33.101562 -54.152344 36.519531 -53.308594 C 39.941406 -52.464844 43.199219 -51.085938 46.300781 -49.171875 C 45.160156 -47.257812 44.054688 -45.375 42.984375 -43.53125 C 41.910156 -41.683594 40.828125 -39.800781 39.734375 -37.886719 C 37.089844 -39.164062 34.523438 -40.214844 32.039062 -41.035156 C 29.554688 -41.855469 26.878906 -42.265625 24.003906 -42.265625 C 23.320312 -42.265625 22.601562 -42.230469 21.851562 -42.164062 C 21.097656 -42.09375 20.402344 -41.921875 19.765625 -41.648438 C 19.125 -41.375 18.601562 -40.976562 18.191406 -40.453125 C 17.78125 -39.929688 17.574219 -39.234375 17.574219 -38.367188 C 17.574219 -37.726562 17.710938 -37.179688 17.988281 -36.726562 C 18.304688 -36.222656 18.886719 -35.777344 19.730469 -35.390625 C 20.574219 -35.003906 21.609375 -34.652344 22.84375 -34.332031 C 24.074219 -34.011719 25.417969 -33.703125 26.878906 -33.410156 C 28.335938 -33.113281 29.863281 -32.757812 31.460938 -32.347656 C 33.007812 -31.9375 34.570312 -31.46875 36.144531 -30.945312 C 37.71875 -30.421875 39.199219 -29.785156 40.589844 -29.03125 C 41.980469 -28.277344 43.222656 -27.390625 44.316406 -26.363281 C 45.410156 -25.339844 46.277344 -24.117188 46.914062 -22.707031 C 47.417969 -21.65625 47.757812 -20.527344 47.941406 -19.320312 C 48.125 -18.113281 48.214844 -16.914062 48.214844 -15.730469 C 48.214844 -12.265625 47.507812 -9.414062 46.09375 -7.179688 C 44.679688 -4.945312 42.835938 -3.179688 40.554688 -1.878906 C 38.273438 -0.582031 35.699219 0.332031 32.828125 0.855469 C 29.953125 1.378906 27.082031 1.640625 24.210938 1.640625 Z M 24.210938 1.640625 "/></g></g></g><g fill="#223047" fill-opacity="1"><g transform="translate(794.587614, 425.715396)"><g><path d="M 31.734375 1.640625 C 27.8125 1.640625 24.140625 0.910156 20.722656 -0.546875 C 17.300781 -2.007812 14.316406 -4 11.761719 -6.53125 C 9.210938 -9.0625 7.191406 -12.035156 5.710938 -15.457031 C 4.230469 -18.875 3.488281 -22.523438 3.488281 -26.398438 C 3.488281 -30.273438 4.230469 -33.921875 5.710938 -37.339844 C 7.191406 -40.761719 9.210938 -43.734375 11.761719 -46.265625 C 14.316406 -48.796875 17.300781 -50.800781 20.722656 -52.285156 C 24.140625 -53.765625 27.8125 -54.507812 31.734375 -54.507812 C 35.609375 -54.507812 39.265625 -53.765625 42.710938 -52.285156 C 46.152344 -50.800781 49.148438 -48.796875 51.703125 -46.265625 C 54.253906 -43.734375 56.273438 -40.761719 57.753906 -37.339844 C 59.238281 -33.921875 59.976562 -30.273438 59.976562 -26.398438 C 59.976562 -22.523438 59.238281 -18.875 57.753906 -15.457031 C 56.273438 -12.035156 54.253906 -9.0625 51.703125 -6.53125 C 49.148438 -4 46.152344 -2.007812 42.710938 -0.546875 C 39.265625 0.910156 35.609375 1.640625 31.734375 1.640625 Z M 31.734375 -40.964844 C 29.726562 -40.964844 27.867188 -40.566406 26.160156 -39.769531 C 24.449219 -38.96875 22.980469 -37.910156 21.746094 -36.589844 C 20.515625 -35.265625 19.546875 -33.726562 18.839844 -31.972656 C 18.132812 -30.214844 17.78125 -28.359375 17.78125 -26.398438 C 17.78125 -24.484375 18.132812 -22.636719 18.839844 -20.859375 C 19.546875 -19.082031 20.515625 -17.53125 21.746094 -16.207031 C 22.980469 -14.886719 24.449219 -13.824219 26.160156 -13.027344 C 27.867188 -12.230469 29.726562 -11.832031 31.734375 -11.832031 C 33.738281 -11.832031 35.597656 -12.230469 37.304688 -13.027344 C 39.015625 -13.824219 40.488281 -14.886719 41.71875 -16.207031 C 42.949219 -17.53125 43.917969 -19.082031 44.625 -20.859375 C 45.332031 -22.636719 45.683594 -24.484375 45.683594 -26.398438 C 45.683594 -28.359375 45.332031 -30.214844 44.625 -31.972656 C 43.917969 -33.726562 42.949219 -35.265625 41.71875 -36.589844 C 40.488281 -37.910156 39.015625 -38.96875 37.304688 -39.769531 C 35.597656 -40.566406 33.738281 -40.964844 31.734375 -40.964844 Z M 31.734375 -40.964844 "/></g></g></g><g fill="#223047" fill-opacity="1"><g transform="translate(858.591234, 425.715396)"><g><path d="M 1.777344 0 L 1.777344 -53.070312 L 16.480469 -53.070312 L 16.480469 -13.128906 L 44.386719 -13.128906 L 44.386719 0 Z M 1.777344 0 "/></g></g></g><g fill="#223047" fill-opacity="1"><g transform="translate(903.927124, 425.715396)"><g><path d="M 47.871094 -19.421875 C 47.871094 -17.007812 47.472656 -14.726562 46.675781 -12.582031 C 45.878906 -10.441406 44.761719 -8.503906 43.324219 -6.769531 C 41.886719 -5.039062 40.191406 -3.542969 38.230469 -2.292969 C 36.269531 -1.039062 34.148438 -0.0703125 31.871094 0.617188 C 30.867188 0.933594 29.839844 1.183594 28.792969 1.367188 C 27.742188 1.550781 26.695312 1.640625 25.644531 1.640625 C 24.597656 1.640625 23.558594 1.550781 22.535156 1.367188 C 21.507812 1.183594 20.492188 0.933594 19.492188 0.617188 C 17.210938 -0.0703125 15.089844 -1.039062 13.128906 -2.292969 C 11.171875 -3.542969 9.472656 -5.039062 8.035156 -6.769531 C 6.597656 -8.503906 5.484375 -10.441406 4.683594 -12.582031 C 3.886719 -14.726562 3.488281 -17.007812 3.488281 -19.421875 L 3.488281 -53.070312 L 18.261719 -53.070312 L 18.261719 -20.3125 C 18.261719 -19.308594 18.464844 -18.386719 18.875 -17.542969 C 19.285156 -16.699219 19.832031 -15.96875 20.515625 -15.351562 C 21.199219 -14.738281 21.988281 -14.257812 22.875 -13.917969 C 23.765625 -13.574219 24.6875 -13.40625 25.644531 -13.40625 C 26.648438 -13.40625 27.59375 -13.574219 28.484375 -13.917969 C 29.375 -14.257812 30.160156 -14.738281 30.84375 -15.351562 C 31.527344 -15.96875 32.074219 -16.699219 32.484375 -17.542969 C 32.894531 -18.386719 33.101562 -19.308594 33.101562 -20.3125 L 33.101562 -53.070312 L 47.871094 -53.070312 Z M 47.871094 -19.421875 "/></g></g></g><g fill="#223047" fill-opacity="1"><g transform="translate(956.442911, 425.715396)"><g><path d="M 32.417969 1.710938 C 32.417969 2.667969 32.300781 3.714844 32.074219 4.855469 C 31.753906 6.496094 31.070312 7.980469 30.023438 9.300781 C 28.972656 10.625 27.730469 11.75 26.296875 12.6875 C 24.859375 13.621094 23.308594 14.339844 21.644531 14.839844 C 19.980469 15.34375 18.375 15.59375 16.824219 15.59375 C 15.957031 15.59375 15.136719 15.5 14.363281 15.320312 L 16.003906 6.222656 C 16.277344 6.316406 16.527344 6.359375 16.753906 6.359375 C 16.984375 6.359375 17.210938 6.359375 17.4375 6.359375 C 18.078125 6.359375 18.761719 6.316406 19.492188 6.222656 C 20.21875 6.132812 20.914062 5.949219 21.578125 5.675781 C 22.238281 5.402344 22.808594 5.039062 23.285156 4.582031 C 23.765625 4.125 24.050781 3.535156 24.140625 2.804688 C 24.1875 2.757812 24.210938 2.644531 24.210938 2.460938 L 24.210938 2.121094 C 24.210938 1.9375 24.199219 1.777344 24.175781 1.640625 C 24.152344 1.503906 24.140625 1.34375 24.140625 1.164062 C 20.90625 0.480469 17.929688 -0.71875 15.214844 -2.429688 C 12.503906 -4.136719 10.167969 -6.222656 8.207031 -8.683594 C 6.246094 -11.148438 4.730469 -13.894531 3.660156 -16.925781 C 2.585938 -19.957031 2.050781 -23.117188 2.050781 -26.398438 C 2.050781 -30.273438 2.78125 -33.921875 4.238281 -37.339844 C 5.699219 -40.761719 7.695312 -43.746094 10.222656 -46.300781 C 12.753906 -48.851562 15.71875 -50.882812 19.113281 -52.386719 C 22.511719 -53.890625 26.171875 -54.644531 30.089844 -54.644531 C 33.511719 -54.644531 36.816406 -54.039062 40.007812 -52.832031 C 43.199219 -51.621094 46.09375 -49.855469 48.691406 -47.53125 L 38.503906 -38.503906 C 35.949219 -40.371094 33.144531 -41.308594 30.089844 -41.308594 C 28.039062 -41.308594 26.125 -40.910156 24.347656 -40.109375 C 22.570312 -39.3125 21.03125 -38.230469 19.730469 -36.863281 C 18.429688 -35.496094 17.417969 -33.910156 16.6875 -32.109375 C 15.957031 -30.308594 15.59375 -28.40625 15.59375 -26.398438 C 15.59375 -24.390625 15.957031 -22.488281 16.6875 -20.6875 C 17.417969 -18.886719 18.429688 -17.300781 19.730469 -15.933594 C 21.03125 -14.566406 22.570312 -13.484375 24.347656 -12.6875 C 26.125 -11.886719 28.039062 -11.488281 30.089844 -11.488281 C 32.28125 -11.488281 34.367188 -11.980469 36.347656 -12.960938 C 38.332031 -13.941406 40.03125 -15.34375 41.445312 -17.164062 L 51.839844 -8.617188 C 49.378906 -5.609375 46.480469 -3.226562 43.152344 -1.46875 C 39.824219 0.285156 36.246094 1.34375 32.417969 1.710938 Z M 32.417969 1.710938 "/></g></g></g><g fill="#223047" fill-opacity="1"><g transform="translate(1005.266202, 425.715396)"><g><path d="M 39.527344 -65.789062 C 40.078125 -65.289062 40.601562 -64.800781 41.101562 -64.320312 C 41.605469 -63.839844 42.058594 -63.304688 42.46875 -62.714844 C 42.332031 -62.027344 42.046875 -61.300781 41.613281 -60.523438 C 41.183594 -59.75 40.65625 -59.03125 40.042969 -58.371094 C 39.425781 -57.710938 38.742188 -57.171875 37.992188 -56.761719 C 37.238281 -56.351562 36.472656 -56.148438 35.699219 -56.148438 C 34.789062 -56.148438 33.921875 -56.386719 33.101562 -56.867188 C 32.28125 -57.34375 31.492188 -57.859375 30.742188 -58.40625 C 29.988281 -58.953125 29.246094 -59.464844 28.519531 -59.945312 C 27.789062 -60.421875 27.058594 -60.660156 26.328125 -60.660156 C 25.644531 -60.660156 25.132812 -60.570312 24.792969 -60.386719 C 24.449219 -60.207031 24.164062 -59.964844 23.9375 -59.667969 C 23.707031 -59.375 23.492188 -59.03125 23.285156 -58.644531 C 23.082031 -58.257812 22.796875 -57.859375 22.433594 -57.445312 C 22.203125 -57.445312 21.90625 -57.59375 21.542969 -57.890625 C 21.179688 -58.1875 20.824219 -58.519531 20.484375 -58.882812 C 20.140625 -59.25 19.84375 -59.648438 19.59375 -60.082031 C 19.34375 -60.511719 19.21875 -60.867188 19.21875 -61.140625 C 19.21875 -61.6875 19.492188 -62.28125 20.039062 -62.917969 C 20.585938 -63.558594 21.042969 -64.058594 21.40625 -64.421875 C 22.042969 -65.0625 22.738281 -65.632812 23.492188 -66.132812 C 24.242188 -66.632812 25.097656 -66.886719 26.054688 -66.886719 C 26.96875 -66.886719 27.847656 -66.644531 28.6875 -66.167969 C 29.53125 -65.6875 30.332031 -65.164062 31.082031 -64.59375 C 31.835938 -64.023438 32.578125 -63.5 33.304688 -63.019531 C 34.035156 -62.542969 34.765625 -62.304688 35.496094 -62.304688 C 36.496094 -62.304688 37.296875 -62.703125 37.886719 -63.5 C 38.480469 -64.296875 39.027344 -65.0625 39.527344 -65.789062 Z M 31.734375 1.640625 C 27.8125 1.640625 24.140625 0.910156 20.722656 -0.546875 C 17.300781 -2.007812 14.316406 -4 11.761719 -6.53125 C 9.210938 -9.0625 7.191406 -12.035156 5.710938 -15.457031 C 4.230469 -18.875 3.488281 -22.523438 3.488281 -26.398438 C 3.488281 -30.273438 4.230469 -33.921875 5.710938 -37.339844 C 7.191406 -40.761719 9.210938 -43.734375 11.761719 -46.265625 C 14.316406 -48.796875 17.300781 -50.800781 20.722656 -52.285156 C 24.140625 -53.765625 27.8125 -54.507812 31.734375 -54.507812 C 35.609375 -54.507812 39.265625 -53.765625 42.710938 -52.285156 C 46.152344 -50.800781 49.148438 -48.796875 51.703125 -46.265625 C 54.253906 -43.734375 56.273438 -40.761719 57.753906 -37.339844 C 59.238281 -33.921875 59.976562 -30.273438 59.976562 -26.398438 C 59.976562 -22.523438 59.238281 -18.875 57.753906 -15.457031 C 56.273438 -12.035156 54.253906 -9.0625 51.703125 -6.53125 C 49.148438 -4 46.152344 -2.007812 42.710938 -0.546875 C 39.265625 0.910156 35.609375 1.640625 31.734375 1.640625 Z M 31.734375 -40.964844 C 29.726562 -40.964844 27.867188 -40.566406 26.160156 -39.769531 C 24.449219 -38.96875 22.980469 -37.910156 21.746094 -36.589844 C 20.515625 -35.265625 19.546875 -33.726562 18.839844 -31.972656 C 18.132812 -30.214844 17.78125 -28.359375 17.78125 -26.398438 C 17.78125 -24.484375 18.132812 -22.636719 18.839844 -20.859375 C 19.546875 -19.082031 20.515625 -17.53125 21.746094 -16.207031 C 22.980469 -14.886719 24.449219 -13.824219 26.160156 -13.027344 C 27.867188 -12.230469 29.726562 -11.832031 31.734375 -11.832031 C 33.738281 -11.832031 35.597656 -12.230469 37.304688 -13.027344 C 39.015625 -13.824219 40.488281 -14.886719 41.71875 -16.207031 C 42.949219 -17.53125 43.917969 -19.082031 44.625 -20.859375 C 45.332031 -22.636719 45.683594 -24.484375 45.683594 -26.398438 C 45.683594 -28.359375 45.332031 -30.214844 44.625 -31.972656 C 43.917969 -33.726562 42.949219 -35.265625 41.71875 -36.589844 C 40.488281 -37.910156 39.015625 -38.96875 37.304688 -39.769531 C 35.597656 -40.566406 33.738281 -40.964844 31.734375 -40.964844 Z M 31.734375 -40.964844 "/></g></g></g><g fill="#223047" fill-opacity="1"><g transform="translate(1069.338202, 425.715396)"><g><path d="M 3.078125 0 L 3.078125 -53.070312 L 45.410156 -53.070312 L 45.410156 -40.417969 L 16.890625 -40.417969 L 16.890625 -32.828125 L 43.769531 -32.828125 L 43.769531 -20.175781 L 16.890625 -20.175781 L 16.890625 -12.582031 L 45.410156 -12.582031 L 45.410156 0 Z M 3.078125 0 "/></g></g></g><g fill="#223047" fill-opacity="1"><g transform="translate(1117.751196, 425.715396)"><g><path d="M 24.210938 1.640625 C 20.652344 1.640625 17.132812 1.21875 13.644531 0.375 C 10.15625 -0.46875 6.816406 -1.640625 3.625 -3.144531 C 3.535156 -3.144531 3.304688 -3.238281 2.941406 -3.417969 C 2.574219 -3.648438 2.394531 -3.808594 2.394531 -3.898438 C 2.394531 -3.945312 2.484375 -4.125 2.667969 -4.445312 C 2.847656 -4.765625 3.078125 -5.164062 3.351562 -5.640625 C 3.625 -6.121094 3.945312 -6.667969 4.308594 -7.285156 C 4.671875 -7.898438 5.039062 -8.527344 5.402344 -9.164062 C 6.179688 -10.441406 6.90625 -11.648438 7.589844 -12.789062 C 8.273438 -13.929688 8.753906 -14.75 9.027344 -15.25 C 9.621094 -15.023438 10.191406 -14.75 10.738281 -14.429688 C 13.199219 -13.199219 15.671875 -12.253906 18.15625 -11.59375 C 20.640625 -10.929688 23.273438 -10.601562 26.054688 -10.601562 C 26.832031 -10.601562 27.664062 -10.632812 28.550781 -10.703125 C 29.441406 -10.769531 30.25 -10.941406 30.980469 -11.214844 C 31.710938 -11.488281 32.3125 -11.910156 32.792969 -12.480469 C 33.273438 -13.050781 33.511719 -13.859375 33.511719 -14.910156 C 33.511719 -15.410156 33.375 -15.855469 33.101562 -16.242188 C 32.828125 -16.628906 32.484375 -16.972656 32.074219 -17.269531 C 31.664062 -17.566406 31.230469 -17.828125 30.773438 -18.054688 C 30.320312 -18.28125 29.886719 -18.464844 29.476562 -18.601562 C 28.519531 -18.964844 27.539062 -19.242188 26.535156 -19.421875 C 25.53125 -19.605469 24.527344 -19.808594 23.527344 -20.039062 C 22.203125 -20.355469 20.90625 -20.652344 19.628906 -20.925781 C 18.351562 -21.199219 17.121094 -21.519531 15.933594 -21.882812 C 14.703125 -22.25 13.53125 -22.648438 12.414062 -23.082031 C 11.296875 -23.515625 10.257812 -24.027344 9.300781 -24.621094 C 7.339844 -25.804688 5.777344 -27.390625 4.617188 -29.375 C 3.453125 -31.355469 2.871094 -33.988281 2.871094 -37.273438 C 2.871094 -38.410156 2.996094 -39.5625 3.25 -40.726562 C 3.5 -41.886719 3.875 -42.996094 4.375 -44.042969 C 5.378906 -46.140625 6.679688 -47.871094 8.273438 -49.242188 C 9.871094 -50.609375 11.636719 -51.679688 13.574219 -52.453125 C 15.511719 -53.230469 17.554688 -53.777344 19.695312 -54.097656 C 21.839844 -54.414062 23.980469 -54.574219 26.125 -54.574219 C 29.636719 -54.574219 33.101562 -54.152344 36.519531 -53.308594 C 39.941406 -52.464844 43.199219 -51.085938 46.300781 -49.171875 C 45.160156 -47.257812 44.054688 -45.375 42.984375 -43.53125 C 41.910156 -41.683594 40.828125 -39.800781 39.734375 -37.886719 C 37.089844 -39.164062 34.523438 -40.214844 32.039062 -41.035156 C 29.554688 -41.855469 26.878906 -42.265625 24.003906 -42.265625 C 23.320312 -42.265625 22.601562 -42.230469 21.851562 -42.164062 C 21.097656 -42.09375 20.402344 -41.921875 19.765625 -41.648438 C 19.125 -41.375 18.601562 -40.976562 18.191406 -40.453125 C 17.78125 -39.929688 17.574219 -39.234375 17.574219 -38.367188 C 17.574219 -37.726562 17.710938 -37.179688 17.988281 -36.726562 C 18.304688 -36.222656 18.886719 -35.777344 19.730469 -35.390625 C 20.574219 -35.003906 21.609375 -34.652344 22.84375 -34.332031 C 24.074219 -34.011719 25.417969 -33.703125 26.878906 -33.410156 C 28.335938 -33.113281 29.863281 -32.757812 31.460938 -32.347656 C 33.007812 -31.9375 34.570312 -31.46875 36.144531 -30.945312 C 37.71875 -30.421875 39.199219 -29.785156 40.589844 -29.03125 C 41.980469 -28.277344 43.222656 -27.390625 44.316406 -26.363281 C 45.410156 -25.339844 46.277344 -24.117188 46.914062 -22.707031 C 47.417969 -21.65625 47.757812 -20.527344 47.941406 -19.320312 C 48.125 -18.113281 48.214844 -16.914062 48.214844 -15.730469 C 48.214844 -12.265625 47.507812 -9.414062 46.09375 -7.179688 C 44.679688 -4.945312 42.835938 -3.179688 40.554688 -1.878906 C 38.273438 -0.582031 35.699219 0.332031 32.828125 0.855469 C 29.953125 1.378906 27.082031 1.640625 24.210938 1.640625 Z M 24.210938 1.640625 "/></g></g></g><g fill="#223047" fill-opacity="1"><g transform="translate(1170.540505, 425.715396)"><g/></g></g><g fill="#223047" fill-opacity="1"><g transform="translate(1192.422084, 425.715396)"><g><path d="M 3.078125 0 L 3.078125 -53.070312 L 45.410156 -53.070312 L 45.410156 -40.417969 L 16.890625 -40.417969 L 16.890625 -32.828125 L 43.769531 -32.828125 L 43.769531 -20.175781 L 16.890625 -20.175781 L 16.890625 -12.582031 L 45.410156 -12.582031 L 45.410156 0 Z M 3.078125 0 "/></g></g></g><g fill="#223047" fill-opacity="1"><g transform="translate(1240.835078, 425.715396)"><g><path d="M 43.496094 0 L 43.496094 -27.289062 L 32.144531 -8.546875 C 32.007812 -8.273438 31.777344 -8.09375 31.460938 -8 C 31.140625 -7.910156 30.867188 -7.863281 30.636719 -7.863281 C 30.363281 -7.863281 30.070312 -7.910156 29.75 -8 C 29.429688 -8.09375 29.203125 -8.273438 29.066406 -8.546875 L 17.710938 -27.289062 L 17.710938 0 L 3.828125 0 L 3.828125 -53.070312 L 16.824219 -53.070312 C 17.28125 -53.070312 17.667969 -52.863281 17.988281 -52.453125 L 30.570312 -31.460938 L 43.222656 -52.453125 C 43.542969 -52.863281 43.90625 -53.070312 44.316406 -53.070312 L 57.378906 -53.070312 L 57.378906 0 Z M 43.496094 0 "/></g></g></g><g fill="#223047" fill-opacity="1"><g transform="translate(1303.334315, 425.715396)"><g/></g></g><g fill="#223047" fill-opacity="1"><g transform="translate(1325.215864, 425.715396)"><g><path d="M 47.050781 -39.941406 L 32.484375 -39.941406 L 32.484375 0 L 18.054688 0 L 18.054688 -39.941406 L 3.488281 -39.941406 L 2.53125 -40.898438 L 2.53125 -53.070312 L 48.007812 -53.070312 L 48.007812 -40.898438 Z M 47.050781 -39.941406 "/></g></g></g><g fill="#223047" fill-opacity="1"><g transform="translate(1375.885395, 425.715396)"><g><path d="M 22.226562 1.640625 C 21.359375 1.640625 20.527344 1.480469 19.730469 1.164062 C 18.933594 0.84375 18.238281 0.398438 17.644531 -0.171875 C 17.050781 -0.742188 16.585938 -1.402344 16.242188 -2.152344 C 15.902344 -2.90625 15.730469 -3.738281 15.730469 -4.652344 C 15.730469 -5.515625 15.902344 -6.335938 16.242188 -7.113281 C 16.585938 -7.886719 17.050781 -8.570312 17.644531 -9.164062 C 18.238281 -9.757812 18.933594 -10.210938 19.730469 -10.53125 C 20.527344 -10.851562 21.359375 -11.011719 22.226562 -11.011719 C 23.09375 -11.011719 23.925781 -10.851562 24.722656 -10.53125 C 25.519531 -10.210938 26.214844 -9.757812 26.808594 -9.164062 C 27.402344 -8.570312 27.867188 -7.886719 28.210938 -7.113281 C 28.550781 -6.335938 28.722656 -5.515625 28.722656 -4.652344 C 28.722656 -2.871094 28.085938 -1.378906 26.808594 -0.171875 C 25.53125 1.039062 24.003906 1.640625 22.226562 1.640625 Z M 22.226562 1.640625 "/></g></g></g><g fill="#223047" fill-opacity="1"><g transform="translate(1410.212145, 425.715396)"><g><path d="M 3.625 -53.070312 L 17.917969 -53.070312 L 17.917969 0 L 3.625 0 Z M 3.625 -53.070312 "/></g></g></g><g fill="#223047" fill-opacity="1"><g transform="translate(1433.187838, 425.715396)"><g><path d="M 22.226562 1.640625 C 21.359375 1.640625 20.527344 1.480469 19.730469 1.164062 C 18.933594 0.84375 18.238281 0.398438 17.644531 -0.171875 C 17.050781 -0.742188 16.585938 -1.402344 16.242188 -2.152344 C 15.902344 -2.90625 15.730469 -3.738281 15.730469 -4.652344 C 15.730469 -5.515625 15.902344 -6.335938 16.242188 -7.113281 C 16.585938 -7.886719 17.050781 -8.570312 17.644531 -9.164062 C 18.238281 -9.757812 18.933594 -10.210938 19.730469 -10.53125 C 20.527344 -10.851562 21.359375 -11.011719 22.226562 -11.011719 C 23.09375 -11.011719 23.925781 -10.851562 24.722656 -10.53125 C 25.519531 -10.210938 26.214844 -9.757812 26.808594 -9.164062 C 27.402344 -8.570312 27.867188 -7.886719 28.210938 -7.113281 C 28.550781 -6.335938 28.722656 -5.515625 28.722656 -4.652344 C 28.722656 -2.871094 28.085938 -1.378906 26.808594 -0.171875 C 25.53125 1.039062 24.003906 1.640625 22.226562 1.640625 Z M 22.226562 1.640625 "/></g></g></g></svg>